<?xml version="1.0" encoding="utf-8"?>
<!-- Generator: Adobe Illustrator 23.0.1, SVG Export Plug-In . SVG Version: 6.00 Build 0)  -->
<svg version="1.1" id="Layer_1" xmlns="http://www.w3.org/2000/svg" xmlns:xlink="http://www.w3.org/1999/xlink" x="0px" y="0px"
	 viewBox="0 0 2500 2500" style="enable-background:new 0 0 2500 2500;" xml:space="preserve">
<style type="text/css">
	.st0{fill:#006698;}
	.st1{fill:#005077;}
	.st2{fill:#00547E;}
	.st3{fill:#003854;}
	.st4{fill:#003E5C;}
	.st5{fill:#003D5C;}
	.st6{fill:#00405F;}
	.st7{fill:#002A3F;}
	.st8{fill:#FEFEFE;}
	.st9{fill:#11709F;}
	.st10{fill:#2179A5;}
	.st11{fill:#06699B;}
	.st12{fill:#3082AB;}
	.st13{fill:#1874A2;}
	.st14{fill:#3A89B0;}
	.st15{fill:#579ABB;}
	.st16{fill:#1B76A3;}
	.st17{fill:#297EA9;}
	.st18{fill:#0A6C9C;}
	.st19{fill:#5297B9;}
	.st20{fill:#428DB3;}
	.st21{fill:#0D6D9D;}
	.st22{fill:#4991B5;}
	.st23{fill:#3485AD;}
	.st24{fill:#5E9EBE;}
	.st25{fill:#4D94B7;}
	.st26{fill:#3787AF;}
	.st27{fill:#267CA7;}
	.st28{fill:#3E8BB1;}
	.st29{fill:#458FB4;}
	.st30{fill:#61A0BF;}
	.st31{fill:#4C93B7;}
	.st32{fill:#65A2C0;}
	.st33{fill:#2179A6;}
	.st34{fill:#1773A2;}
	.st35{fill:#68A4C2;}
	.st36{fill:#6FA8C5;}
	.st37{fill:#6BA6C3;}
</style>
<g>
	<path class="st0" d="M2060.9,2402.8c-539.9,0-1079.8,0-1619.7,0c-5.8-2.4-11.9-0.5-17.8-1.1c-3.6,0-7.1,0-10.7,0
		c-54.2,0.7-103-17.2-148.5-44.8c-57-34.6-100.9-81.9-131.5-141.2c-19.1-37-31.9-75.9-32.4-118c0-1.8,0.3-3.8-1.1-5.3
		c0-2.2,0-4.5,0-6.7c1.8-4.5,1.8-9,0-13.5c0-547.4,0-1094.8,0-1642.2c1.8-4.5,1.8-9,0-13.5c0-2.2,0-4.5,0-6.7
		c3.6-18.3,2.4-37.1,7.2-55.3c13-48.5,35.8-91.9,67.4-130.8c33.4-41.1,74.3-72.5,121.8-95.6c36.8-18,75.6-28.1,116.8-27.7
		c3.6,0,7.2,0,10.7,0c6-0.6,12.1,1.2,17.9-1.1c539.9,0,1079.8,0,1619.7,0c5.2,1.8,10.5,1.8,15.7,0c3.7,0,7.5,0,11.2,0
		c9.8,2.3,19.9,1.9,29.9,2.8c43.6,3.7,82.5,20.6,119.4,42.8c59.5,35.8,104.5,85.5,135.4,147.7c18,36.3,29.2,74.4,29.2,115.3
		c0,1.5,0,3,1.1,4.2c0,0.7,0,1.5,0,2.2c-1.8,4.5-1.8,9,0,13.5c0,548.2,0,1096.3,0,1644.5c-1.8,4.5-1.8,9,0,13.5c0,1.5,0,3,0,4.5
		c-3.5,20.5-2.4,41.6-8.4,61.8c-14.6,49.5-38.5,93.7-72.1,133.1c-28.4,33.2-61.8,59.8-99.8,80.6c-39.8,21.9-82.2,35.8-128.2,36.1
		c-2.2,0-4.5-0.6-6.4,1.1c-4.5,0-9,0-13.5,0C2069.9,2401,2065.4,2401,2060.9,2402.8z"/>
	<path class="st1" d="M441.1,99.2c-5.7,3.7-12.1,1.8-18.2,2.1c-1.4-0.8-1.4-1.5,0.2-2.1C429.1,99.2,435.1,99.2,441.1,99.2z"/>
	<path class="st1" d="M423,2400.7c6.1,0.3,12.5-1.6,18.2,2.1c-6,0-12,0-18,0C421.6,2402.2,421.5,2401.5,423,2400.7z"/>
	<path class="st2" d="M2076.6,99.2c-5.2,3.4-10.5,3.1-15.7,0C2066.1,99.2,2071.4,99.2,2076.6,99.2z"/>
	<path class="st3" d="M2402.8,427.6c-2.7-4.5-3.9-9,0-13.5C2402.8,418.6,2402.8,423.1,2402.8,427.6z"/>
	<path class="st4" d="M99.2,416.4c3.8,4.5,2.6,9,0,13.5C99.2,425.4,99.2,420.9,99.2,416.4z"/>
	<path class="st5" d="M99.2,2072.1c2.6,4.5,3.8,9,0,13.5C99.2,2081.1,99.2,2076.6,99.2,2072.1z"/>
	<path class="st6" d="M2402.8,2085.6c-3.8-4.5-2.7-9,0-13.5C2402.8,2076.6,2402.8,2081.1,2402.8,2085.6z"/>
	<path class="st2" d="M2060.9,2402.8c4.5-3,9-3.2,13.5,0C2069.9,2402.8,2065.4,2402.8,2060.9,2402.8z"/>
	<path class="st7" d="M423.1,99.2c0,0.7,0,1.4-0.2,2.1c-3.8-0.1-7.5-0.1-11.3-0.1c0.1-0.6,0.2-1.3,0.2-1.9
		C415.6,99.2,419.4,99.2,423.1,99.2z"/>
	<path class="st7" d="M423,2400.7c0.1,0.7,0.2,1.4,0.2,2.1c-3.7,0-7.5,0-11.2,0c0-0.7-0.1-1.3-0.2-1.9
		C415.5,2400.8,419.2,2400.8,423,2400.7z"/>
	<path class="st8" d="M1376.9,1129.8c25.9-35.7,53.2-68.9,87.2-96c54.8-43.6,117.9-65.3,187.1-70.9c64.7-5.3,128.1,1,189.2,23.3
		c99,36.1,166.1,105.7,206.8,201.8c33.3,78.6,43.6,161.5,43.6,246.1c0,195.7-0.1,391.4,0.2,587.1c0,8.7-2,11.3-11,11.2
		c-108.7-0.3-217.5-0.3-326.2,0c-9.5,0-10.7-3.3-10.7-11.5c0.2-180.3,0.2-360.7,0.1-541c0-44-3.2-87.6-17.4-129.7
		c-27.5-81.6-92.2-122.9-177.8-113.4c-84.5,9.4-152.7,72.9-167.7,156.4c-3.6,20-3.5,40.3-3.5,60.5c0,188.6-0.1,377.2,0.2,565.8
		c0,10.1-2.2,13-12.7,13c-107.6-0.4-215.2-0.5-322.8,0c-11.4,0.1-13.2-3.5-13.1-13.9c2.3-314.9,2.6-629.9,1.8-944.8
		c-0.1-26.2-0.7-52.5-1.5-78.7c-0.2-6.9,0.8-9.8,8.8-9.8c110.2,0.3,220.5,0.3,330.7,0c8.2,0,8.8,3.3,8.7,9.9
		c-0.2,41.2-0.1,82.5-0.1,123.7C1376.9,1122.6,1376.9,1126.2,1376.9,1129.8z"/>
	<path class="st8" d="M488.3,1507.9c0-170.2,0.1-340.4-0.3-510.5c0-10.2,2.8-12,12.3-12c108,0.4,215.9,0.4,323.9,0
		c9.7,0,12.4,2.1,12.4,12.2c-0.3,340.7-0.3,681.5-0.1,1022.2c0,9.3-1.5,12.8-12,12.8c-108.3-0.4-216.7-0.4-325,0
		c-9.5,0-11.5-2.6-11.5-11.8C488.4,1849.7,488.3,1678.8,488.3,1507.9z"/>
	<path class="st8" d="M859.8,661.6c-1.6,40.6-11.9,78.3-37.6,110.6c-32.3,40.5-75.4,61.7-125.9,68.1c-57.5,7.2-112-0.6-159.7-36.6
		c-9.2-6.9-17.4-15.1-26.1-22.7c-10.3-2.4-14.1-11.3-19.1-19c-4-9.5-12.1-17-14-27.6c-4.8-8-6.5-16.9-8.3-25.8
		c-1.7-5.2-3.7-10.3-4.2-15.8c0.4-7.1-2.5-13.8-2.3-20.9c2.9-10.2-1.4-21,2.1-31.2c1.1-7.9,0.6-16.1,4.1-23.5c0-2.4,0.2-4.7,0.6-7
		c0.1-6.6,3.7-11.9,6.6-17.4c3.6-12.8,10.6-24,18-34.9c11.5-18.3,27.2-32.7,44.2-45.9c19.5-11.6,39.5-22.2,61.8-27.7
		c4-1,8-1.7,12.1-2c22.8-5.1,45.7-7.5,69-4.9c11.7-1,23,1.1,34.2,4c14.3,3.4,29.2,5.2,41.8,13.8c8.7,4.2,18.4,6.6,25.4,14
		c2.8,2.4,6.3,3.4,9.2,5.6c3.8,2.5,6.8,6,10.3,8.9c9.9,5.4,16,14.6,22.8,23c4.7,5,7.5,11.3,11.5,16.8c4.1,5,7,10.7,9.2,16.7
		c5.9,9,7.4,19.7,11.7,29.3c1.1,4,0.5,8.2,2.2,12.1c3,8.8,2.6,18.3,5.1,27.2C864.6,653.7,863,657.9,859.8,661.6z"/>
	<path class="st9" d="M852.4,610.7c-3.8-10-7.6-20-11.4-29.9c2.2-6.8,8.5-7.9,14.1-9.8c34.9-11.5,69.4-23.8,104.2-35.7
		c107.4-36.7,214.7-73.7,322-110.4c73.3-25.1,146.7-50.3,220-75.5c105.5-36.3,211-72.6,316.7-108.6c12.4-4.2,24.7-8.8,37.1-13
		c9.2-3.2,18.4-6.3,28.1-7.2c14.5,1.6,26.8,9.6,40.5,13.5c1.3,9.3-6.1,11.2-12.2,13.5c-13.7,5.1-27.5,9.9-41.3,14.6
		c-69.6,23.4-138.9,47.5-208.3,71.3c-104.8,35.9-209.6,72-314.5,107.8c-75.4,25.8-150.9,51.5-226.3,77.6
		c-85.6,29.7-171.5,58.4-256.9,88.6C860.4,608.9,856.7,610.9,852.4,610.7z"/>
	<path class="st10" d="M821.3,549.3c-7.5-7.6-14.9-15.2-22.4-22.8c-1.1-8.1,4.9-10.1,10.6-12.1c17.6-6.4,35.3-12.5,53.1-18.5
		c68.9-23.2,137.5-47.1,206.3-70.6c105.3-36,210.5-72.2,315.8-108.3c74.1-25.4,148.2-50.6,222.2-76.3c32.6-11.3,65.6-21.2,97.7-33.9
		c10.6-4.2,22.2-3.7,32.4-8.6c24,0.8,48.1-2.4,72,2.3c4,9.3-3.6,11.2-9.2,13.1c-17,5.9-33.8,12.2-50.8,18
		c-94.8,31.8-189.1,64.7-283.8,97c-75.5,25.7-150.9,51.7-226.3,77.6c-79.7,27.4-159.4,54.5-239,82.1
		c-55.5,19.2-111.4,37.6-166.7,57.6C829.2,547.3,825.3,548.4,821.3,549.3z"/>
	<path class="st11" d="M859.8,661.6c-0.1-4.1-0.3-8.2-0.4-12.3c-1.9-14.1,0-17.4,14.1-22.2c67.5-22.6,134.7-46.1,202-69.1
		c105.2-36,210.4-72.2,315.7-108.2c74-25.3,148.1-50.7,222.1-76.2c105.2-36.1,210.3-72.4,315.6-108.3c12.4-4.2,24.4-9.6,37.6-11
		c6.2,3.5,12.4,7,18.6,10.5c2.6,1.5,5.7,2.9,5.2,6.5c-0.5,3.5-3.8,4.3-6.6,5.4c-1.1,0.4-2.1,0.7-3.2,1.1
		c-68.1,23.2-136.2,46.3-204.3,69.6c-103.8,35.5-207.7,71.2-311.5,106.8c-74.8,25.7-149.5,51.3-224.3,77
		c-104.5,35.9-209.1,71.7-313.6,107.6C904.5,646.5,882.1,654,859.8,661.6z"/>
	<path class="st12" d="M756.1,499c-13.5-4.4-27-8.8-40.5-13.3c-3.6-8.1,2.3-10.9,7.9-13.1c9.4-3.7,18.8-7.3,28.4-10.5
		c72.1-23.9,143.8-49,215.7-73.6c102-34.9,203.9-69.9,305.8-104.9c73.6-25.3,147.3-50.5,220.8-75.9c11.7-4,24-5.3,35.6-9.5
		c27.7,0,55.5,0,83.2,0c1.2,8.4-5.5,9.7-10.9,11.7c-32.7,12.1-65.7,23.2-98.6,34.5c-86.5,29.5-172.9,59.3-259.4,88.8
		c-74.8,25.5-149.5,51.2-224.2,77c-82.1,28.4-164.5,55.9-246.4,85C767.9,497.2,761.9,497.7,756.1,499z"/>
	<path class="st13" d="M1883.1,220.7c-4.4,5.8-11.4,7-17.6,9.1c-59.8,20.6-119.8,41-179.6,61.5c-105.9,36.3-211.8,72.6-317.8,108.9
		c-76.9,26.4-153.7,52.7-230.6,79.1c-95.6,32.8-191.2,65.7-286.9,98.6c-3.2,1.1-6.5,1.9-9.7,2.8c-2.8-5.2-5.7-10.4-8.5-15.6
		c-3-8.4,3.3-10.5,8.9-12.6c12.6-4.7,25.3-9.2,38.1-13.5c68.5-23,136.8-46.8,205.2-70.2c105.6-36.2,211.2-72.5,316.8-108.6
		c75.5-25.9,151-51.7,226.4-77.7c65.2-22.4,130.5-44.5,195.5-67.4c7.9-2.8,16.3-1.9,23.8-5.6C1859.1,213.2,1871.1,217,1883.1,220.7z
		"/>
	<path class="st14" d="M610,486.2c-24.8,7.1-48.5,16.5-70.1,30.9c-0.7-0.3-1.5-0.7-2.1-0.5c-97.7,39.6-198.8,69.5-298,104.8
		c-9.9,3.5-19.5,7.7-29.6,10.2c-4.3,1.1-10.5,4.2-12.2-4c0-7.8,0.8-15.3,4.4-22.4c2.3-4.1,5.8-6.1,10.4-7.6
		c87.9-29.7,175.7-60.1,263.5-90.1c73.7-25.2,147.3-50.5,220.9-75.8c79.3-27.2,158.7-54.3,238-81.6
		c99.5-34.2,199.1-68.1,298.4-102.6c40.7-14.1,81.9-26.5,121.8-42.8c8.4-3.4,17.9-2,26-6.5c15.7,0,31.5,0,47.2,0
		c1.1,10.2-7.3,11.1-13.6,13.2c-35.5,11.8-70.8,24.3-106.2,36.4c-107.3,36.6-214.6,73.6-321.9,110.3c-74,25.3-148,50.7-222,76.3
		c-35.7,12.4-71.8,23.7-107.2,37c-11.6,4.3-23.6,7-35.7,9.5C617.8,481.9,613.4,482.9,610,486.2z"/>
	<path class="st15" d="M256.3,463.5c5.7-13.2,13.6-25.1,22.4-36.4c12.7-7.4,26.7-11.6,40.5-16.3c68.4-23,136.7-46.7,205-70.1
		c105.8-36.3,211.6-72.7,317.4-109c26.9-9.2,54.1-17.7,80.6-27.8c7.3-2.8,15.7-1.6,22.7-5.6c28.5,0,57,0,85.5,0
		c1.1,9.7-7.2,10.6-12.9,12.8c-17.5,6.5-35.2,12.6-53,18.6c-72.1,24.2-143.8,49.2-215.7,73.7c-76.5,26.1-153,52.4-229.5,78.7
		c-76.5,26.3-152.8,52.9-229.5,78.6c-6.4,2.1-12.4,5.5-19,6.8C265.6,468.5,259.5,470.7,256.3,463.5z"/>
	<path class="st16" d="M1847.1,209.5c-2.7,4.6-7.6,5.8-12.2,7.4c-61.3,20.9-122.6,41.8-183.9,62.8
		c-104.1,35.7-208.3,71.4-312.4,107.2c-74.7,25.6-149.5,51.3-224.2,77c-90.6,31.2-181.3,62.4-271.9,93.6c-4.2,1.5-8.9,2.4-10.1,7.7
		c-3.7-5.3-7.5-10.6-11.2-15.8c0.8-6.2,6-7,10.5-8.6c31.5-11,62.9-22.1,94.4-32.9c70.6-24.1,141.2-48,211.7-72.1
		c103.5-35.4,207-71,310.5-106.5c75.8-26,151.7-52,227.5-78.1c41.1-14.1,82.2-28.4,123.2-42.6c4.2-1.5,9-2.3,9.7-8
		C1821.6,203.5,1834.4,206.5,1847.1,209.5z"/>
	<path class="st17" d="M756.1,499c6.8-9.3,18.1-9.9,27.6-13.2c69.7-24.3,139.6-47.8,209.4-71.6c104.9-35.9,209.7-71.9,314.5-107.8
		c74.4-25.5,148.8-51,223.1-76.6c24.8-8.5,49.4-17.5,74.1-26.2c3.2-1.1,6.5-2.1,8.3-5.3c21.8,0,43.5,0,65.3,0
		c1.8,8.2-4.9,9.2-9.8,11c-15.7,5.9-31.7,10.9-47.6,16.3c-83.4,28.4-166.7,57.2-250,85.7C1243.1,355,1115.3,399,987.5,442.8
		c-65,22.3-130,44.3-194.7,67.2c-3.9,1.4-7.9,1.9-11.9,2.5C772.6,508,764.4,503.5,756.1,499z"/>
	<path class="st18" d="M1966.4,254.4c-10,10.1-24.1,11.6-36.5,15.9c-69.6,24.4-139.6,47.8-209.4,71.7
		c-104.9,35.9-209.7,71.9-314.5,107.8c-74.4,25.5-148.7,51.1-223.1,76.6c-103.8,35.6-207.5,71.3-311.4,106.6
		c-8.4,2.9-12.7,7.3-12,16.2c-1.5-9.4-2.9-18.8-4.4-28.2c2.6-6.4,8.5-7.9,14.2-9.8c62.8-21.1,125.4-43,188.1-64.4
		c105.2-35.9,210.4-72.2,315.6-108.2c74.1-25.3,148-50.9,222.1-76.2c105.2-36.1,210.3-72.5,315.6-108.2c11.6-3.9,22.8-9.6,35.5-8.8
		C1953.5,246.9,1959.6,251.5,1966.4,254.4z"/>
	<path class="st19" d="M256.3,463.5c6.2,2.1,11.9-0.3,17.5-2.3c74.8-25.6,149.6-51.3,224.4-77C602,348.6,705.9,313,809.8,277.4
		c67-23,134-46.1,200.9-69.3c6.9-2.4,14.6-3.7,19.8-9.7c21.7,0,43.5,0,65.2,0c1.7,5.6-2.3,8.1-6.1,10.6c-3.5,2.3-7.5,3.4-11.4,4.7
		c-69.7,23.1-138.9,47.5-208.4,71.2c-77.6,26.5-155.1,53.2-232.7,79.8c-75.4,25.9-150.9,51.9-226.3,77.6
		c-48.5,16.6-97,33.5-145.6,49.9c-4.6,1.6-9.2,3.7-14.1,3.8c-4.9,0.1-10.5,0-8.2-7.9C246.3,479.3,250.5,471,256.3,463.5z"/>
	<path class="st20" d="M209.3,578.1c0.1-5.6,1.4-10.9,4.4-15.7c98-31.8,195-66.4,292.4-99.6c94.3-32.1,188.5-64.6,282.7-96.9
		c109.8-37.6,219.5-75.2,329.2-113c46.9-16.1,94.3-30.9,140.4-49.2c6.9-2.7,15-1.4,21.6-5.4c15.7,0,31.5,0,47.2,0
		c1.6,7.9-4.6,9.1-9.7,11.1c-25.8,10.1-52.4,18.1-78.6,27.1c-125,43-250,85.8-375,128.7C737.3,408.6,610.5,452,483.8,495.7
		c-85.7,29.5-171.5,58.4-257,88.5c-2.8,1-5.7,2.5-8.6,2.5C212.9,586.7,207.1,586.3,209.3,578.1z"/>
	<path class="st21" d="M1946.1,245.4c-10.7,7.4-23.3,10-35.2,14.1c-96.7,33.4-193.6,66.2-290.3,99.3c-77.3,26.4-154.5,53-231.8,79.5
		c-76.9,26.4-153.8,52.7-230.7,79.1c-97.4,33.5-194.9,67-292.3,100.4c-3.5,1.2-7.2,2.1-10.8,3.2c-2.3-3.1-2.4-6.8-2.6-10.4
		c1.4-5.8,6.3-6.9,10.9-8.5c34.3-11.9,68.6-24,103-35.8c68.4-23.4,137-46.6,205.4-70c103.5-35.4,207-71,310.5-106.5
		c75.9-26,151.7-52,227.6-78.1c65.9-22.7,131.8-45.4,197.7-68.2c6-2.1,12.3-3.7,16.2-9.4C1931.1,237.9,1938.6,241.7,1946.1,245.4z"
		/>
	<path class="st22" d="M220.5,542.2c0.4-6.7,3.8-12.3,6.7-18.1c37.2-13.6,74.9-26.1,112.3-39C502.7,429,666,373,829.3,317.1
		c93.9-32.1,187.6-64.7,281.6-96.5c22.6-7.7,44.4-17.6,68-22.2c16.5,0,33,0,49.5,0c1.2,8.3-5,9.6-10.7,11.6
		c-62.9,21.6-125.8,43.2-188.7,64.7C901.5,318.3,774,362.1,646.4,405.8c-75.6,25.8-151.3,51.8-226.8,78c-60.3,21-121,41-181.2,62.3
		C232.5,548.2,224.1,554,220.5,542.2z"/>
	<path class="st23" d="M1529.9,198.3c-6.8,7.2-16.5,8.5-25.1,11.5c-69.7,24.1-139.6,47.7-209.4,71.6
		c-102.7,35.2-205.4,70.4-308.1,105.7c-76.5,26.2-153,52.5-229.4,78.7c-11,3.8-21.9,7.8-32.8,11.7c-4.3,1.5-8.6,3.1-9.5,8.4
		c-11.3-1.5-22.6-3-33.8-4.5c-2.2-1.6-6.9,0.8-7.1-3.7c-0.2-4.2,2.9-6.9,6.4-8.5c9.6-4.1,19.5-7.7,29.4-11
		c69.6-23.2,138.8-47.6,208.3-71.3c104.9-35.8,209.6-72,314.5-107.8c69.1-23.6,138.1-47.3,207-71.3c11-3.8,22.8-4.2,33.3-9.4
		C1492.4,198.3,1511.2,198.3,1529.9,198.3z"/>
	<path class="st24" d="M945,198.3c-7.7,8.7-19.2,9.9-29.1,13.4c-66.4,23.2-133.2,45.6-199.7,68.4C610.2,316.4,504.3,352.7,398.5,389
		c-35.8,12.3-71.4,24.8-107.2,37.1c-4,1.4-8.1,4.7-12.6,1c6.2-11.4,13.2-22.2,22.6-31.1c17.9-9.5,37.5-14.7,56.5-21.2
		c69.8-23.8,139.5-47.9,209.3-71.6c77.9-26.5,155.7-53.4,233.6-80.2c26.1-9,52.1-18.3,79.1-24.5C901.5,198.3,923.2,198.3,945,198.3z
		"/>
	<path class="st25" d="M243,488.1c1.6,5.4,5.2,4.2,9,2.9c48.6-16.5,97.2-33,145.8-49.7c29.8-10.2,59.4-20.7,89.2-30.9
		c96.8-33.1,193.7-66,290.5-99.1c76.2-26.1,152.4-52.3,228.6-78.4c24.5-8.4,48.9-16.8,73.3-25.2c6-2.1,12.3-3.8,16.2-9.4
		c15,0,30,0,45,0c1.9,5.6-2.4,7.4-6.1,9c-5.1,2.3-10.3,4.5-15.6,6.2c-70.4,23.3-140.3,47.8-210.5,71.8
		c-77.2,26.4-154.4,52.9-231.6,79.4c-78.6,27-157.3,53.9-235.9,80.9c-62.6,21.6-125.4,42.8-188,64.7c-3.5,1.2-7.1,2.7-10.7,3.2
		c-3.9,0.5-8.7,1.2-8.4-5.4C236.5,501.3,238.3,494.1,243,488.1z"/>
	<path class="st26" d="M1473.7,198.3c-2.4,4.8-7,6.4-11.7,8c-69.1,23.5-138.3,47-207.3,70.6c-104.8,35.9-209.7,71.9-314.5,107.8
		c-74.4,25.5-148.7,51-223.1,76.6c-11.7,4-23.3,8.3-34.9,12.5c-5.9,2.1-6.1,4.6-0.5,7.5c-24.1-0.7-48,1-71.7,5
		c-0.2-6.6,5.7-6,9.3-7.2c64.1-22,128.3-43.8,192.4-65.8c105.9-36.3,211.9-72.6,317.8-108.9c75.1-25.8,150.2-51.5,225.3-77.3
		c20.9-7.2,41.8-14.5,62.7-21.7c4.3-1.5,8.6-2.8,11.1-7C1443.7,198.3,1458.7,198.3,1473.7,198.3z"/>
	<path class="st27" d="M1736.9,198.2c-2.5,4.2-6.8,5.6-11.1,7c-53.1,18.2-106.3,36.4-159.4,54.6c-105.9,36.3-211.8,72.6-317.7,108.9
		c-75.1,25.7-150.2,51.5-225.2,77.3c-71.2,24.5-142.3,49-213.5,73.4c-4.3,1.5-8.6,2.8-11.2,7c-4.1-1.6-6.5-5.1-9.4-8.1
		c-2.2-7.8,4.3-8.7,8.8-10.3c29.5-10.4,59.1-20.4,88.7-30.6c146.2-50.4,292.4-100.4,438.7-150.6c113.4-38.9,226.8-78.1,340.3-116.7
		c11.6-3.9,23.3-7.8,34.9-11.8C1712.9,198.2,1724.9,198.2,1736.9,198.2z"/>
	<path class="st28" d="M1381.4,198.3c-2.5,4.2-6.9,5.5-11.2,7c-57.5,19.6-114.9,39.3-172.3,58.9c-106,36.3-212,72.7-318,109
		c-74.8,25.7-149.6,51.3-224.4,77C551,486.1,446.4,522,341.8,557.9c-46.4,15.9-92.9,31.7-139.4,47.5c0.3-3.8-0.2-7.9,2.4-11.2
		c2.7-2.6,5.4-5.1,9.1-6.4c106.4-34.9,211.9-72.2,317.9-108.4c127.6-43.5,255.1-87.5,382.6-131.2c102-35,204.1-69.9,306-105.2
		c36.8-12.7,74.2-23.7,110.2-38.8c6.9-2.9,15-1.4,21.5-5.9C1361.9,198.3,1371.7,198.3,1381.4,198.3z"/>
	<path class="st28" d="M1352.2,198.3c-2.5,4.8-7,6.4-11.7,8c-53.9,18.4-107.8,36.9-161.6,55.3c-104.2,35.7-208.4,71.5-312.5,107.2
		c-75.1,25.8-150.2,51.6-225.4,77.3c-104.2,35.7-208.4,71.4-312.5,107.2c-36.1,12.4-72.2,25-108.3,37.6c-5,1.7-9.9,3.6-15.3,3.2
		c0-5.7,1.3-11.1,4.4-16c4,8.4,10.3,3.9,15.5,2.2c64.1-22,128.2-44.2,192.3-66.2c88.2-30.3,176.5-60.3,264.8-90.6
		c74.8-25.6,149.5-51.3,224.3-77c104.5-35.9,209.1-71.7,313.6-107.6c31.9-11,63.7-22.2,95.5-33.3c4.6-1.6,9.4-2.7,12.2-7.3
		C1335.7,198.3,1343.9,198.3,1352.2,198.3z"/>
	<path class="st29" d="M220.5,542.2c7.7,5.4,14.5,0.2,21.2-2.1c87.5-30,174.9-60.3,262.4-90.3c91.4-31.4,182.9-62.5,274.3-93.8
		c75.1-25.7,150.2-51.5,225.3-77.3c71.2-24.5,142.4-49,213.5-73.5c4.3-1.5,8.6-2.8,11.2-7c8.4,0.3,16.9-2.1,25,1.8
		c1.4,8.5-6.1,8.6-10.6,10.1c-37.8,12.4-75.3,25.8-113,38.7c-109.9,37.6-219.7,75.5-329.6,113c-3.2,1.1-6.3,2.3-9.4,3.7
		C636.2,418,482,471.3,327.6,524.2c-32.4,11.1-64.6,22.8-97.3,33.3c-5.9,1.9-10.9,3.5-13.9-3.8C216.6,549.4,218.1,545.6,220.5,542.2
		z"/>
	<path class="st30" d="M879.8,198.3c-1.5,4.9-6.1,5.2-9.8,6.4c-66.3,22.6-132.6,45.1-198.8,67.8c-104.5,35.8-209,71.6-313.4,107.5
		c-14.5,5-29,10.2-43.5,15.2c-4.2,1.5-8.5,3.4-12.9,0.7c6.4-10.1,13.7-19.3,22.7-27.2c21.9-7.4,44-14.3,65.7-22.3
		c31.3-11.6,63-21.7,94.5-32.5c69.8-24,139.6-48,209.4-71.8c31.9-10.9,64.2-20.6,95.5-33.1c12.6-5,26.2-6.1,38.9-10.6
		C845.3,198.3,862.5,198.3,879.8,198.3z"/>
	<path class="st11" d="M495.4,760.5c5,6.8,10,13.6,15,20.4c-18.2,8.9-37.9,14-56.9,20.7c-70.3,24.5-140.9,48.2-211.4,72.2
		c-14.2,4.8-28.3,9.7-42.3,14.9c-8.1,3.1-11.1,0.5-10.7-7.8c0.3-6.3,0.1-12.7,0.1-19.1c2.9-6.4,8.6-8.8,14.8-10.9
		c59.8-20.3,119.5-40.8,179.1-61.4c30-10.4,60.3-19.9,90-31.1C480.6,755.6,488.8,751.4,495.4,760.5z"/>
	<path class="st23" d="M198,627.7c9.9,2.5,18-3.4,26.5-6.2c31.2-10.4,62.1-21.6,93.3-32.3c66.9-22.9,133.8-45.7,200.7-68.4
		c6.9-2.3,13.7-6.3,21.5-3.7c-14.7,8-24.3,21.5-35,33.7c-2.6,3-5.2,6-7.8,9c-24.1,12.1-50.3,18.8-75.6,27.5
		c-70.1,24.2-140,48.6-210.4,71.9c-3.2,1.1-6.3,2.5-9.8,2.5c-3.5,0-8,1.2-7.9-4.8C193.4,647,194.7,637.2,198,627.7z"/>
	<path class="st31" d="M1179,198.3c-2.5,4.2-6.9,5.5-11.2,7c-54.2,18.6-108.4,37.1-162.7,55.7c-104.9,36-209.8,71.9-314.7,107.9
		c-73,25-146,50.1-219,75.2c-76.9,26.4-153.8,52.8-230.7,79.1c-4.3,1.5-8.8,5.1-13.6,0.9c1.6-3.7,3.1-7.3,4.7-11
		c14.3-0.1,26.9-6.4,39.8-11.2c30.6-11.3,61.6-21.2,92.4-31.8c70.5-24.2,141-48.4,211.6-72.4c78-26.5,155.9-53.5,233.8-80.2
		c74.8-25.6,149.5-51.2,224.2-77.1c32.9-11.4,66.2-21.6,98.7-34.2c5.9-2.3,11.3-5.7,17.3-7.9C1159.5,198.3,1169.2,198.3,1179,198.3z
		"/>
	<path class="st12" d="M193.6,657c4.7,3.1,8.7-0.2,12.7-1.6c92-31.3,184-62.8,276-94.1c4.8-1.6,9.6-4.9,14.9-1.4
		c-5.9,11.4-11.9,22.9-17.8,34.3c-25.8,12.9-53.9,19.9-81,29.3c-62.9,21.9-125.9,43.6-189.1,64.8c-6,2-12.5,6.4-18.7,0
		c-0.3-3-1.2-6.1,0.7-8.9C192,672,189.7,664.2,193.6,657z"/>
	<path class="st21" d="M495.4,760.5c-4-2-7.8-1.6-11.9-0.2c-98.1,33.9-196.2,67.7-294.3,101.5c0-9.7,0-19.5,0-29.2
		c3.3-6.2,9.3-8.3,15.4-10.3c67.1-22.2,133.6-45.9,200.6-68.5c20.5-6.9,40.8-14.5,61.5-21.1c5-1.6,10-3.7,14.7,0.8
		C486,742.6,490.7,751.5,495.4,760.5z"/>
	<path class="st32" d="M828,198.3c-2.6,4.2-6.9,5.5-11.2,6.9C759,225,701.3,244.8,643.5,264.6c-102.1,35-204.1,70.1-306.2,104.8
		c-4,1.4-9.3,7.1-13.3-0.7c6.8-8.2,14.1-15.9,22.2-22.8c28.4-12.6,58.3-21.1,87.5-31.3c47.7-16.7,95.7-32.8,143.5-49.4
		c58-20.2,116.5-39.2,174.2-60.2c8.9-3.2,18.6-2.3,27.1-6.7C795,198.3,811.5,198.3,828,198.3z"/>
	<path class="st9" d="M481.3,733.6c-77.8,26.6-155.7,53.2-233.5,79.8c-19.5,6.6-39.1,12.8-58.6,19.2c0-9,0-18,0-27
		c3.2-5.6,8.5-7.9,14.3-9.9c49-17.4,98.4-33.6,147.5-50.8c34.6-12.1,69.5-23.3,103.9-35.9c5.7-2.1,11.9-5.5,18-0.2
		C475.7,717,478.5,725.3,481.3,733.6z"/>
	<path class="st33" d="M468.3,639.5c-0.2,11.1-0.4,22.2-0.6,33.3c-9.9-0.6-18.8,3.3-28,6.3c-70,23.3-139.5,48.2-209.5,71.4
		c-8.9,2.9-17.4,6.9-26.4,9.5c-5.1,1.5-10.3,3.1-14.6-1.7c0-9,0-18,0-27c2.5-5.8,7.7-7.7,13.1-9.6c58.8-20.1,117.6-40.4,176.5-60.4
		c25.2-8.6,50.2-17.6,75.6-25.5C459.2,634.3,465.9,630.1,468.3,639.5z"/>
	<path class="st27" d="M1700.9,198.2c-3.9,5.7-10.2,7.4-16.2,9.4c-68.1,23.2-136.2,46.3-204.2,69.6c-102.1,34.9-204.1,70-306.1,105
		c-75.1,25.8-150.2,51.5-225.3,77.3c-47.1,16.2-94.2,32.3-141.3,48.8c-6.5,2.3-14,3.3-18.3,9.9c-2.9-1.9-5.8-3.9-8.6-5.8
		c1.5-4.3,5.6-4.6,9.1-5.8c58.1-19.9,116.2-39.7,174.3-59.6c103.8-35.6,207.5-71.2,311.3-106.8c77.9-26.7,155.8-53.4,233.7-80.1
		c51-17.5,102-35,153-52.5c6-2.1,12.3-3.8,16.2-9.4C1685.9,198.2,1693.4,198.2,1700.9,198.2z"/>
	<path class="st34" d="M472.8,708.8c-59.1,20.2-118.3,40.4-177.4,60.6c-35.4,12.1-70.8,24.1-106.2,36.2c0-8.2,0-16.5,0-24.7
		c3.7-5.1,9-7.5,14.8-9.4c65.9-22,131.4-45.3,197.3-67.3c17.7-5.9,35.1-12.8,53-18.1c7.2-2.1,13.5-2.1,15.6,7.1
		C470.9,698.3,471.9,703.5,472.8,708.8z"/>
	<path class="st35" d="M778.5,198.3c-10.2,9.9-24.2,11.5-36.6,15.8c-68.5,24-137.4,47-206.1,70.6c-57.7,19.8-115.2,40-173,59.7
		c-5.2,1.8-10.6,6.8-16.7,1.6c9-9.8,18.3-19.3,29.4-26.8c39.7-12.7,79.1-26.6,118.5-40.1c67.1-23,134.1-46,201.2-68.9
		c12-4.1,23.9-8.1,36-11.8C747,198.3,762.8,198.3,778.5,198.3z"/>
	<path class="st16" d="M470,693c-4.8-6.7-10.6-3.4-16.2-1.6c-78.2,26.8-156.4,53.7-234.6,80.4c-9.9,3.4-19.5,7.8-30,9
		c0-7.5,0-15,0-22.5c12.7-1.8,24.2-7.5,36.1-11.6c70-23.9,140-47.7,209.9-71.6c6.7-2.3,13.4-4.6,19.9-7.4c6.1-2.6,10-0.6,12.5,5.1
		C468.5,679.5,469.2,686.3,470,693z"/>
	<path class="st27" d="M468.3,639.5c-4.6-3.5-8.7-0.1-12.6,1.3c-80.7,27.5-161.3,55.2-241.9,82.8c-8.1,2.8-16.4,5.2-24.5,7.8
		c0-6.7,0-13.5,0.1-20.2c7.9-7.6,18.8-8.9,28.4-12.2c44.2-14.9,88.3-30.1,132.3-45.4C386,641,422.3,629.6,458,616.2
		c4.6-1.7,9.8-4.9,14.5,0.4C471.1,624.2,469.7,631.8,468.3,639.5z"/>
	<path class="st29" d="M216.3,553.7c6,3.7,11.6,1,17.2-1c102.8-35.3,205.6-70.5,308.4-105.8c78.7-27,157.4-54,236.1-80.9
		c3.9-1.3,7.9-2.4,11.8-3.6c2,2.2,1.8,4.5,0,6.7C728.9,390.1,667.9,411.1,607,432c-104.9,36-209.8,71.9-314.7,107.9
		c-21.6,7.4-43.2,15-64.8,22.3c-4.4,1.5-9.1,4.4-13.7,0.2C213.8,559.2,214.4,556.3,216.3,553.7z"/>
	<path class="st36" d="M420.5,285.3c41.5-28.9,86.8-50,135.1-64.8c35.9-11,72.5-18.7,110.2-20.2c1.7-1.2,3.4-1.1,5.1-0.2
		c1.4,10.1-6.8,11.4-13.2,13.6c-29.7,10.1-59.3,20.4-89,30.5c-41.3,14.1-82.7,27.9-123.8,42.7c-4.9,1.8-9.8,3.6-15,4.3
		C425.3,291.7,420.6,292.1,420.5,285.3z"/>
	<path class="st29" d="M789.8,369.1c0-2.2,0-4.5,0-6.7c4.5-1.9,8.9-4,13.5-5.6c97-33.2,194.1-66.2,291.1-99.4
		c48.2-16.5,96.2-33.1,144.4-49.6c5.3-1.8,10.7-3.5,14.7-7.8c8.7-3.7,17.8-1.6,26.7-1.8c-3.6,5.7-9.8,6.5-15.4,8.4
		c-70.9,24.2-141.8,48.1-212.6,72.4c-83.9,28.8-167.7,57.9-251.6,86.8C797,367.1,793.4,368.1,789.8,369.1z"/>
	<path class="st31" d="M1149.7,198.3c-9.2,10-22.4,11.8-34.2,15.9c-69.7,24.3-139.7,47.8-209.6,71.7
		c-105,35.9-209.9,71.9-314.8,107.9C517,419.2,443,444.6,368.9,470.1c-40.8,14-81.4,28.2-122.2,42.1c-4.7,1.6-9.6,5.1-14.8,0.8
		c0.7-1.6,1.3-3.2,2-4.8c4.1,3.9,8.4,1.8,12.6,0.3c115.1-39.6,230.2-79.3,345.3-118.8c67-23,134-45.6,201-68.5
		c108.4-37.1,216.9-74.2,325.2-111.6c7.9-2.7,16.9-4.1,22.7-11.4C1143.7,198.3,1146.7,198.3,1149.7,198.3z"/>
	<path class="st37" d="M420.5,285.3c5,4.7,10.3,1.2,14.8-0.3c56-19,112-38.4,167.9-57.6c17-5.8,34.1-11.6,51-17.4
		c6-2.1,12.2-3.8,16.3-9.3c4.9-3.2,10.6,0.2,15.7-2.1c7.5-0.1,15.1-0.1,22.6-0.2c1.4,8.1-4.9,8.9-10.2,10.6
		c-36.2,11.9-72,24.9-108.1,37.1c-58.4,19.8-116.8,39.9-175.1,60c-4.9,1.7-9.6,4.3-15.1,3.9c-2.8-1.2-6.5-1.3-6.2-5.8
		C402.2,297,410.6,290.1,420.5,285.3z"/>
	<path class="st37" d="M400.6,306.2c69.6-23.6,139.1-47.1,208.7-70.7c29.4-10,58.8-20.1,88.3-30.2c4.3-1.5,8.6-2.8,11.2-6.9
		c7.5,0,15,0,22.5,0c-4,5.6-10.3,7.3-16.2,9.3c-68,23.2-136,46.3-203.9,69.5c-40.3,13.8-80.6,27.9-120.9,41.7
		c-4.7,1.6-9.7,5-14.7,0.2c4.2-5.7,10-9.5,16.1-13C394.7,306.8,397.7,308.5,400.6,306.2z"/>
	<path class="st17" d="M472.5,616.6c-12.7,1.9-24.2,7.6-36.2,11.7c-70.2,24-140.4,47.9-210.6,71.7c-12,4-23.2,10.8-36.3,11.1
		c0.7-10.5-2.2-21.3,2.1-31.6c0,3,0,6,0.1,9c4.3,5,9,6.7,15.9,4.3c45.2-15.7,90.6-30.9,135.8-46.7c36.7-12.8,73.8-24.6,110.4-38
		c6.4-2.3,13.6-5.9,19.4,1.7C472.8,612.2,472.6,614.4,472.5,616.6z"/>
	<path class="st37" d="M686.2,198.5c-4.9,3.1-10.4,1.3-15.7,2.1c-1.6-0.1-3.2-0.2-4.8-0.3C672.4,197.5,679.3,198.4,686.2,198.5z"/>
	<path class="st37" d="M400.6,306.2c-3,2.6-6,2.6-9,0c0.8-0.7,1.6-1.3,2.4-2C396.2,304.9,398.4,305.5,400.6,306.2z"/>
	<path class="st17" d="M472.9,609.9c-9.7-1-18.3,3.3-27.1,6.3c-75.4,25.8-150.7,51.6-226,77.5c-4.6,1.6-9.1,3.5-13.6,5.2
		c-12.8,4.9-14.4,3.7-14.7-10.4c65.2-22.1,130.5-44.2,195.7-66.3c26.6-9,53.1-18.3,79.7-27.2c4-1.3,8.2-4.6,12.6-0.7
		C477.3,599.5,477.4,605.7,472.9,609.9z"/>
</g>
</svg>
