<?xml version="1.0" encoding="utf-8"?>
<!-- Generator: Adobe Illustrator 23.0.1, SVG Export Plug-In . SVG Version: 6.00 Build 0)  -->
<svg version="1.1" id="Layer_1" xmlns="http://www.w3.org/2000/svg" xmlns:xlink="http://www.w3.org/1999/xlink" x="0px" y="0px"
	 viewBox="0 0 3365 3365" style="enable-background:new 0 0 3365 3365;" xml:space="preserve">
<style type="text/css">
	.st0{fill:url(#SVGID_1_);}
	.st1{fill:url(#SVGID_2_);}
	.st2{fill:#006698;}
	.st3{fill:#005077;}
	.st4{fill:#00547E;}
	.st5{fill:#003854;}
	.st6{fill:#003E5C;}
	.st7{fill:#003D5C;}
	.st8{fill:#00405F;}
	.st9{fill:#002A3F;}
	.st10{fill:#FEFEFE;}
	.st11{fill:#11709F;}
	.st12{fill:#2179A5;}
	.st13{fill:#06699B;}
	.st14{fill:#3082AB;}
	.st15{fill:#1874A2;}
	.st16{fill:#3A89B0;}
	.st17{fill:#579ABB;}
	.st18{fill:#1B76A3;}
	.st19{fill:#297EA9;}
	.st20{fill:#0A6C9C;}
	.st21{fill:#5297B9;}
	.st22{fill:#428DB3;}
	.st23{fill:#0D6D9D;}
	.st24{fill:#4991B5;}
	.st25{fill:#3485AD;}
	.st26{fill:#5E9EBE;}
	.st27{fill:#4D94B7;}
	.st28{fill:#3787AF;}
	.st29{fill:#267CA7;}
	.st30{fill:#3E8BB1;}
	.st31{fill:#458FB4;}
	.st32{fill:#61A0BF;}
	.st33{fill:#4C93B7;}
	.st34{fill:#65A2C0;}
	.st35{fill:#2179A6;}
	.st36{fill:#1773A2;}
	.st37{fill:#68A4C2;}
	.st38{fill:#6FA8C5;}
	.st39{fill:#6BA6C3;}
</style>
<radialGradient id="SVGID_1_" cx="291.7011" cy="155.9227" r="4056.6665" gradientTransform="matrix(1.0001 0 0 -1.0001 -0.1434 3366.1567)" gradientUnits="userSpaceOnUse">
	<stop  offset="9.000000e-02" style="stop-color:#FA8F21"/>
	<stop  offset="0.78" style="stop-color:#D82D7E"/>
</radialGradient>
<path class="st0" d="M895.1,3268.9c-190-8.6-293.3-40.3-361.9-67c-91-35.4-155.8-77.6-224.1-145.8s-110.5-133.1-145.8-224
	c-26.8-68.7-58.4-171.9-67-361.9c-9.5-205.4-11.4-267.1-11.4-787.5s2.1-582,11.3-787.6c8.6-190,40.5-293.1,67-361.9
	c35.4-91,77.7-155.8,145.8-224.2C377.1,240.7,442,198.4,533,163.1c68.7-26.8,171.9-58.4,361.9-67c205.5-9.4,267.2-11.3,787.5-11.3
	c520.4,0,582,2.1,787.6,11.3c190,8.6,293.1,40.5,361.9,67c91,35.2,155.8,77.6,224.1,145.8c68.3,68.2,110.4,133.1,145.8,224.1
	c26.8,68.7,58.4,171.9,67,361.9c9.4,205.6,11.3,267.1,11.3,787.6c0,520.2-1.9,582-11.3,787.6c-8.6,190-40.5,293.3-67,361.9
	c-35.4,91-77.6,155.8-145.8,224s-133.1,110.4-224.1,145.8c-68.7,26.8-171.9,58.4-361.9,67c-205.4,9.4-267.1,11.3-787.6,11.3
	C1162.2,3280.2,1100.5,3278.4,895.1,3268.9"/>
<radialGradient id="SVGID_2_" cx="2306.6511" cy="238.6991" r="3619.5579" gradientTransform="matrix(1.0001 0 0 -1.0001 -0.1434 3366.1567)" gradientUnits="userSpaceOnUse">
	<stop  offset="0.64" style="stop-color:#8C3AAA;stop-opacity:0"/>
	<stop  offset="1" style="stop-color:#8C3AAA"/>
</radialGradient>
<path class="st1" d="M884.1,3291c-192.7-8.8-297.3-40.8-367-68c-92.2-35.9-158-78.7-227.2-147.8S177.8,2940.3,142.1,2848
	c-27.2-69.6-59.2-174.3-68-367c-9.6-208.3-11.6-270.8-11.6-798.4s2.1-590.1,11.5-798.5c8.8-192.7,41-297.2,68-367
	c35.9-92.2,78.8-158,147.8-227.3C358.9,220.7,424.7,177.7,517,142c69.6-27.2,174.3-59.2,367-68c208.4-9.5,271-11.5,798.4-11.5
	c527.7,0,590.1,2.1,798.5,11.5c192.7,8.8,297.2,41,367,68c92.2,35.7,158,78.7,227.2,147.8c69.2,69.1,111.9,135,147.8,227.2
	c27.2,69.6,59.2,174.3,68,367c9.5,208.5,11.5,270.9,11.5,798.5c0,527.5-1.9,590.1-11.5,798.5c-8.8,192.7-41,297.3-68,367
	c-35.9,92.2-78.7,158-147.8,227.1s-135,111.9-227.2,147.8c-69.6,27.2-174.3,59.2-367,68c-208.3,9.5-270.9,11.5-798.5,11.5
	C1155,3302.4,1092.4,3300.6,884.1,3291"/>
<g>
	<path class="st2" d="M2822.3,3301.4c-758,0-1516.1,0-2274.1,0c-8.1-3.3-16.7-0.8-25-1.6c-5,0-10,0-15,0
		c-76.1,1-144.6-24.1-208.5-62.9c-80-48.6-141.6-115-184.6-198.3c-26.8-51.9-44.7-106.5-45.5-165.7c0-2.6,0.5-5.3-1.6-7.4
		c0-3.2,0-6.3,0-9.5c2.5-6.3,2.5-12.6,0-19c0-768.6,0-1537.1,0-2305.7c2.5-6.3,2.5-12.6,0-19c0-3.2,0-6.3,0-9.5
		c5-25.7,3.3-52.2,10.2-77.6c18.3-68.1,50.3-129,94.7-183.6c46.9-57.6,104.4-101.8,171-134.2C395.7,82.3,450.1,68,508,68.7
		c5,0,10,0,15.1,0c8.4-0.8,17,1.7,25.2-1.6c758,0,1516.1,0,2274.1,0c7.4,2.5,14.7,2.5,22.1,0c5.3,0,10.5,0,15.8,0
		c13.8,3.2,28,2.7,41.9,3.9c61.2,5.1,115.9,28.9,167.6,60c83.6,50.3,146.7,120.1,190,207.4c25.3,50.9,41,104.5,41.1,161.9
		c0,2.1,0,4.2,1.6,5.9c0,1.1,0,2.1,0,3.2c-2.5,6.3-2.5,12.6,0,19c0,769.6,0,1539.3,0,2308.9c-2.5,6.3-2.5,12.6,0,19
		c0,2.1,0,4.2,0,6.3c-4.9,28.8-3.4,58.4-11.8,86.8c-20.5,69.5-54.1,131.6-101.3,186.8c-39.8,46.6-86.7,83.9-140.1,113.2
		c-55.9,30.7-115.4,50.2-180,50.6c-3.1,0-6.3-0.9-9,1.5c-6.3,0-12.6,0-19,0C2835,3298.9,2828.7,3298.9,2822.3,3301.4z"/>
	<path class="st3" d="M797,421c-6.3,4.1-13.2,2-19.9,2.3c-1.6-0.9-1.5-1.7,0.2-2.3C783.9,421,790.5,421,797,421z"/>
	<path class="st3" d="M777.1,2945.3c6.7,0.3,13.7-1.8,19.9,2.3c-6.6,0-13.2,0-19.7,0C775.6,2946.9,775.5,2946.2,777.1,2945.3z"/>
	<path class="st4" d="M2590.8,421c-5.8,3.7-11.5,3.4-17.3,0C2579.3,421,2585,421,2590.8,421z"/>
	<path class="st5" d="M2948.6,781.2c-2.9-4.9-4.3-9.9,0-14.8C2948.6,771.4,2948.6,776.3,2948.6,781.2z"/>
	<path class="st6" d="M422,768.9c4.1,4.9,2.9,9.9,0,14.8C422,778.8,422,773.8,422,768.9z"/>
	<path class="st7" d="M422,2584.9c2.9,4.9,4.1,9.9,0,14.8C422,2594.7,422,2589.8,422,2584.9z"/>
	<path class="st8" d="M2948.6,2599.7c-4.2-4.9-3-9.9,0-14.8C2948.6,2589.8,2948.6,2594.7,2948.6,2599.7z"/>
	<path class="st4" d="M2573.5,2947.6c4.9-3.3,9.9-3.5,14.8,0C2583.4,2947.6,2578.5,2947.6,2573.5,2947.6z"/>
	<path class="st9" d="M777.3,421c0,0.8-0.1,1.5-0.2,2.3c-4.1-0.1-8.2-0.1-12.3-0.2c0.1-0.7,0.2-1.4,0.2-2.1
		C769.1,421,773.2,421,777.3,421z"/>
	<path class="st9" d="M777.1,2945.3c0.1,0.8,0.2,1.5,0.2,2.3c-4.1,0-8.2,0-12.3,0c0-0.7-0.1-1.4-0.2-2.1
		C768.9,2945.4,773,2945.3,777.1,2945.3z"/>
	<path class="st10" d="M1823.3,1551.4c28.4-39.1,58.3-75.6,95.7-105.3c60.1-47.9,129.3-71.6,205.2-77.8c71-5.8,140.5,1.1,207.5,25.6
		c108.6,39.6,182.2,115.9,226.8,221.3c36.5,86.2,47.8,177.1,47.8,269.9c0,214.6-0.1,429.3,0.2,643.9c0,9.5-2.2,12.4-12.1,12.3
		c-119.2-0.4-238.5-0.4-357.7,0c-10.4,0-11.7-3.6-11.7-12.6c0.2-197.8,0.3-395.6,0.1-593.4c0-48.2-3.5-96.1-19-142.3
		c-30.2-89.5-101.1-134.8-195-124.3c-92.7,10.3-167.4,79.9-183.9,171.5c-3.9,21.9-3.8,44.2-3.8,66.4c0,206.8-0.1,413.7,0.3,620.5
		c0,11-2.4,14.3-13.9,14.2c-118-0.5-236-0.5-354,0c-12.5,0.1-14.5-3.8-14.4-15.2c2.6-345.4,2.9-690.8,2-1036.2
		c-0.1-28.8-0.7-57.6-1.7-86.3c-0.2-7.6,0.9-10.7,9.6-10.7c120.9,0.3,241.8,0.3,362.7,0c9,0,9.6,3.7,9.6,10.8
		c-0.2,45.2-0.1,90.5-0.1,135.7C1823.3,1543.4,1823.3,1547.4,1823.3,1551.4z"/>
	<path class="st10" d="M848.8,1966c0-186.7,0.1-373.3-0.3-560c0-11.2,3.1-13.2,13.5-13.2c118.4,0.4,236.8,0.4,355.2,0
		c10.7,0,13.6,2.3,13.6,13.4c-0.3,373.7-0.3,747.4-0.1,1121.1c0,10.2-1.6,14-13.2,14c-118.8-0.5-237.6-0.4-356.4,0
		c-10.5,0-12.6-2.8-12.6-12.9C848.9,2341,848.8,2153.5,848.8,1966z"/>
	<path class="st10" d="M1256.2,1037.8c-1.8,44.5-13,85.9-41.3,121.3c-35.4,44.4-82.7,67.7-138.1,74.7c-63,7.9-122.9-0.7-175.2-40.2
		c-10.1-7.6-19.1-16.6-28.6-24.9c-11.3-2.6-15.5-12.4-21-20.9c-4.4-10.4-13.3-18.6-15.3-30.2c-5.2-8.7-7.1-18.5-9.1-28.3
		c-1.9-5.7-4.1-11.3-4.6-17.3c0.4-7.8-2.7-15.2-2.6-22.9c3.2-11.2-1.6-23,2.3-34.2c1.2-8.7,0.7-17.6,4.5-25.8c0-2.6,0.2-5.2,0.7-7.7
		c0.1-7.2,4-13,7.3-19c4-14.1,11.7-26.3,19.7-38.3c12.7-20.1,29.8-35.9,48.5-50.3c21.4-12.7,43.3-24.4,67.7-30.4
		c4.4-1.1,8.8-1.8,13.2-2.2c25-5.6,50.1-8.2,75.7-5.3c12.8-1.1,25.2,1.2,37.5,4.4c15.7,3.7,32,5.7,45.8,15.2
		c9.6,4.6,20.2,7.2,27.8,15.4c3,2.6,6.9,3.7,10.1,6.1c4.2,2.7,7.4,6.5,11.3,9.7c10.9,5.9,17.5,16,25,25.2
		c5.1,5.5,8.2,12.4,12.6,18.4c4.5,5.5,7.6,11.7,10.1,18.3c6.5,9.8,8.2,21.6,12.8,32.2c1.3,4.3,0.6,9,2.4,13.3
		c3.3,9.7,2.8,20.1,5.6,29.8C1261.5,1029.2,1259.7,1033.8,1256.2,1037.8z"/>
	<path class="st11" d="M1248.1,982.1c-4.2-10.9-8.4-21.9-12.5-32.8c2.5-7.5,9.4-8.7,15.5-10.7c38.2-12.6,76.1-26.1,114.2-39.1
		c117.8-40.3,235.4-80.8,353.2-121.1c80.4-27.5,160.9-55.1,241.3-82.8c115.7-39.8,231.5-79.6,347.3-119.1
		c13.6-4.6,27.1-9.6,40.7-14.3c10.1-3.5,20.1-6.9,30.8-7.9c15.9,1.8,29.4,10.5,44.4,14.8c1.5,10.2-6.7,12.3-13.3,14.8
		c-15,5.6-30.1,10.9-45.3,16c-76.3,25.6-152.3,52.1-228.4,78.2c-115,39.3-229.9,78.9-344.9,118.3c-82.7,28.3-165.5,56.5-248.2,85.1
		c-93.9,32.5-188.1,64-281.8,97.1C1256.8,980,1252.8,982.2,1248.1,982.1z"/>
	<path class="st12" d="M1213.9,914.7c-8.2-8.4-16.4-16.7-24.6-25.1c-1.3-8.9,5.4-11,11.6-13.3c19.3-7,38.7-13.7,58.2-20.3
		c75.6-25.4,150.9-51.7,226.3-77.4c115.5-39.4,230.9-79.2,346.4-118.8c81.3-27.8,162.5-55.5,243.7-83.7
		c35.7-12.4,72-23.2,107.1-37.2c11.6-4.6,24.3-4.1,35.6-9.4c26.3,0.9,52.8-2.6,78.9,2.5c4.4,10.2-4,12.3-10.1,14.4
		c-18.6,6.5-37.1,13.4-55.7,19.7c-104,34.9-207.5,71-311.2,106.4c-82.8,28.2-165.5,56.7-248.2,85.1c-87.4,30.1-174.8,59.8-262.1,90
		c-60.9,21.1-122.1,41.3-182.8,63.2C1222.7,912.4,1218.3,913.7,1213.9,914.7z"/>
	<path class="st13" d="M1256.2,1037.8c-0.1-4.5-0.3-9-0.4-13.5c-2-15.5,0-19.1,15.5-24.3c74-24.8,147.7-50.5,221.5-75.8
		c115.4-39.5,230.8-79.2,346.2-118.7c81.2-27.8,162.4-55.7,243.6-83.6c115.4-39.6,230.7-79.4,346.1-118.7
		c13.6-4.6,26.7-10.5,41.2-12c6.8,3.8,13.6,7.6,20.4,11.5c2.9,1.6,6.2,3.2,5.7,7.2c-0.5,3.9-4.1,4.7-7.2,5.9
		c-1.2,0.4-2.3,0.8-3.5,1.2c-74.7,25.4-149.4,50.8-224,76.3c-113.9,39-227.8,78.1-341.6,117.2c-82,28.1-164,56.3-246,84.4
		c-114.7,39.3-229.3,78.7-344,118C1305.2,1021.2,1280.7,1029.5,1256.2,1037.8z"/>
	<path class="st14" d="M1142.5,859.6c-14.8-4.9-29.6-9.7-44.4-14.6c-3.9-8.9,2.6-11.9,8.7-14.3c10.3-4.1,20.7-8.1,31.2-11.5
		c79.1-26.3,157.7-53.8,236.6-80.7c111.8-38.3,223.6-76.7,335.4-115.1c80.7-27.8,161.5-55.4,242.2-83.2c12.9-4.4,26.3-5.9,39.1-10.4
		c30.4,0,60.9,0,91.3,0c1.4,9.2-6,10.6-11.9,12.8c-35.8,13.2-72,25.5-108.2,37.8c-94.9,32.4-189.6,65.1-284.5,97.4
		c-82,28-164,56.1-245.9,84.4c-90.1,31.2-180.4,61.4-270.3,93.2C1155.4,857.5,1148.9,858.1,1142.5,859.6z"/>
	<path class="st15" d="M2378.6,554.3c-4.8,6.4-12.5,7.6-19.3,10c-65.6,22.6-131.3,45-197,67.5c-116.2,39.8-232.3,79.6-348.5,119.5
		c-84.3,28.9-168.6,57.8-252.9,86.8c-104.9,36-209.7,72.1-314.6,108.1c-3.5,1.2-7.1,2.1-10.6,3.1c-3.1-5.7-6.2-11.4-9.3-17.1
		c-3.3-9.2,3.6-11.5,9.7-13.8c13.9-5.2,27.8-10.1,41.8-14.8c75.2-25.3,150.1-51.3,225.1-77c115.8-39.7,231.6-79.5,347.4-119.2
		c82.8-28.4,165.6-56.7,248.3-85.2c71.5-24.6,143.1-48.8,214.4-74c8.6-3,17.9-2.1,26.1-6.1C2352.3,546.1,2365.4,550.2,2378.6,554.3z
		"/>
	<path class="st16" d="M982.3,845.5c-27.2,7.8-53.2,18.1-76.8,33.9c-0.8-0.3-1.7-0.8-2.3-0.5c-107.1,43.4-218,76.3-326.8,114.9
		c-10.8,3.8-21.4,8.4-32.5,11.2c-4.7,1.2-11.5,4.6-13.4-4.4c0-8.5,0.9-16.8,4.8-24.6c2.6-4.5,6.4-6.7,11.4-8.4
		c96.5-32.6,192.7-65.9,289-98.8c80.8-27.6,161.5-55.4,242.3-83.1c87-29.9,174-59.6,261-89.5c109.1-37.5,218.3-74.7,327.3-112.5
		c44.6-15.4,89.8-29.1,133.6-47c9.2-3.8,19.6-2.2,28.5-7.1c17.3,0,34.5,0,51.8,0c1.2,11.1-8,12.2-14.9,14.5
		c-39,12.9-77.7,26.7-116.5,40c-117.7,40.2-235.3,80.7-353,121c-81.2,27.8-162.3,55.6-243.4,83.6c-39.2,13.5-78.7,26-117.6,40.6
		c-12.7,4.8-25.9,7.7-39.1,10.4C990.8,840.8,986,841.8,982.3,845.5z"/>
	<path class="st17" d="M594.3,820.6c6.3-14.5,14.9-27.5,24.6-39.9c13.9-8.1,29.3-12.8,44.4-17.9c75.1-25.3,149.9-51.2,224.8-76.9
		c116.1-39.8,232.1-79.7,348.2-119.5c29.5-10.1,59.3-19.4,88.4-30.5c8.1-3.1,17.2-1.7,24.9-6.1c31.3,0,62.5,0,93.8,0
		c1.2,10.6-7.9,11.7-14.1,14c-19.2,7.2-38.6,13.9-58.1,20.4c-79,26.5-157.7,54-236.6,80.9c-83.9,28.6-167.8,57.5-251.7,86.3
		c-83.9,28.8-167.6,58-251.7,86.2c-7,2.4-13.6,6-20.9,7.4C604.5,826.1,597.9,828.5,594.3,820.6z"/>
	<path class="st18" d="M2339.1,541.9c-3,5.1-8.3,6.4-13.4,8.1c-67.2,23-134.5,45.9-201.7,68.9c-114.2,39.1-228.4,78.3-342.6,117.5
		c-82,28.1-163.9,56.2-245.9,84.4c-99.4,34.2-198.8,68.5-298.2,102.7c-4.6,1.6-9.7,2.6-11.1,8.5c-4.1-5.8-8.2-11.6-12.3-17.4
		c0.9-6.8,6.6-7.7,11.6-9.4c34.5-12.1,69-24.3,103.6-36.1c77.4-26.5,154.9-52.7,232.2-79.1c113.5-38.9,227-77.9,340.5-116.8
		c83.2-28.5,166.4-57,249.5-85.6c45.1-15.5,90.1-31.1,135.2-46.7c4.6-1.6,9.8-2.5,10.6-8.8C2311.1,535.4,2325.1,538.7,2339.1,541.9z
		"/>
	<path class="st19" d="M1142.5,859.6c7.5-10.2,19.9-10.8,30.3-14.5c76.4-26.6,153.1-52.4,229.7-78.6c115-39.4,230-78.8,345-118.3
		c81.6-28,163.2-55.9,244.7-84.1c27.2-9.4,54.2-19.2,81.3-28.7c3.5-1.2,7.1-2.3,9.1-5.8c23.9,0,47.7,0,71.6,0
		c2,9-5.3,10.1-10.7,12.1c-17.2,6.5-34.8,12-52.2,17.9c-91.5,31.2-182.8,62.7-274.2,94c-140.2,48-280.4,96.2-420.6,144.2
		c-71.2,24.4-142.6,48.5-213.6,73.7c-4.3,1.5-8.7,2.1-13.1,2.8C1160.6,869.4,1151.5,864.5,1142.5,859.6z"/>
	<path class="st20" d="M2469.9,591.2c-11,11.1-26.4,12.7-40.1,17.5c-76.4,26.8-153.1,52.4-229.7,78.6c-115,39.4-230,78.8-345,118.3
		c-81.6,28-163.1,56-244.7,84c-113.8,39-227.6,78.1-341.5,117c-9.2,3.1-13.9,8-13.2,17.8c-1.6-10.3-3.2-20.6-4.8-31
		c2.8-7,9.3-8.7,15.6-10.8c68.9-23.1,137.5-47.1,206.3-70.6c115.4-39.4,230.7-79.2,346.1-118.7c81.2-27.8,162.4-55.8,243.5-83.6
		c115.4-39.6,230.6-79.5,346.2-118.7c12.8-4.3,25-10.5,39-9.7C2455.8,583.1,2462.5,588,2469.9,591.2z"/>
	<path class="st21" d="M594.3,820.6c6.8,2.3,13-0.4,19.2-2.5c82.1-28.1,164.1-56.3,246.1-84.4c113.9-39.1,227.8-78.1,341.7-117.3
		c73.5-25.2,146.9-50.5,220.3-76c7.6-2.6,16-4,21.8-10.7c23.9,0,47.7,0,71.6,0c1.8,6.2-2.5,8.9-6.6,11.7c-3.8,2.5-8.2,3.7-12.5,5.1
		c-76.4,25.3-152.4,52.1-228.5,78.1c-85.1,29.1-170.2,58.3-255.2,87.5c-82.7,28.4-165.5,56.9-248.2,85.2
		C710.6,815.5,657.4,834,604.1,852c-5.1,1.7-10.1,4-15.4,4.1c-5.4,0.1-11.6,0-9-8.6C583.3,837.9,588,828.8,594.3,820.6z"/>
	<path class="st22" d="M542.7,946.3c0.1-6.2,1.5-12,4.9-17.2c107.5-34.8,213.8-72.9,320.7-109.3c103.4-35.2,206.7-70.8,310.1-106.3
		c120.4-41.2,240.8-82.5,361.1-123.9c51.4-17.7,103.4-33.9,154-54c7.6-3,16.4-1.6,23.7-5.9c17.3,0,34.5,0,51.8,0
		c1.7,8.7-5.1,10-10.7,12.2c-28.3,11-57.4,19.8-86.2,29.7c-137.1,47.1-274.2,94.1-411.3,141.1c-139.1,47.7-278.2,95.3-417.2,143.2
		c-93.9,32.4-188.1,64-281.8,97.1c-3.1,1.1-6.2,2.8-9.4,2.8C546.7,955.6,540.3,955.3,542.7,946.3z"/>
	<path class="st23" d="M2447.7,581.4c-11.7,8.1-25.6,11-38.7,15.5c-106,36.6-212.3,72.6-318.4,108.9c-84.8,29-169.5,58.1-254.2,87.2
		c-84.3,28.9-168.7,57.8-253,86.8c-106.9,36.7-213.7,73.4-320.6,110.1c-3.9,1.3-7.9,2.4-11.8,3.5c-2.5-3.4-2.6-7.4-2.9-11.4
		c1.5-6.3,6.9-7.6,12-9.3c37.7-13.1,75.3-26.3,113-39.2c75.1-25.7,150.2-51.1,225.3-76.8c113.6-38.9,227.1-77.9,340.6-116.8
		c83.2-28.5,166.4-57,249.6-85.7c72.3-24.9,144.6-49.8,216.8-74.8c6.6-2.3,13.5-4.1,17.7-10.4
		C2431.2,573.2,2439.5,577.3,2447.7,581.4z"/>
	<path class="st24" d="M555,906.9c0.4-7.4,4.2-13.5,7.3-19.9c40.8-14.9,82.1-28.6,123.2-42.7c179-61.5,358.1-123,537.2-184.3
		c103-35.2,205.8-71,308.9-105.9c24.8-8.4,48.7-19.3,74.6-24.4c18.1,0,36.2,0,54.3,0c1.3,9.1-5.4,10.5-11.7,12.7
		c-68.9,23.7-137.9,47.3-206.9,71c-139.9,47.9-279.7,96.1-419.7,143.9c-83,28.3-165.9,56.8-248.7,85.5c-66.2,23-132.7,45-198.7,68.4
		C568.2,913.5,559,919.8,555,906.9z"/>
	<path class="st25" d="M1991.2,529.7c-7.5,7.9-18.1,9.3-27.6,12.6c-76.4,26.5-153.1,52.3-229.6,78.5
		c-112.7,38.6-225.3,77.3-337.9,115.9c-83.9,28.8-167.8,57.5-251.6,86.4c-12,4.1-24,8.5-36,12.8c-4.7,1.7-9.4,3.4-10.4,9.3
		c-12.4-1.7-24.7-3.3-37.1-5c-2.4-1.8-7.5,0.8-7.8-4.1c-0.2-4.6,3.2-7.6,7.1-9.3c10.6-4.5,21.4-8.4,32.3-12.1
		c76.4-25.5,152.3-52.2,228.4-78.2c115-39.2,229.9-78.9,344.9-118.3c75.7-25.9,151.5-51.9,227.1-78.2c12-4.2,25-4.6,36.5-10.3
		C1950.1,529.7,1970.6,529.7,1991.2,529.7z"/>
	<path class="st26" d="M1349.6,529.7c-8.5,9.6-21,10.9-31.9,14.7c-72.9,25.4-146.1,50-219.1,75C982.5,659.2,866.4,699,750.3,738.9
		c-39.2,13.5-78.3,27.2-117.5,40.7c-4.4,1.5-8.9,5.2-13.8,1.1c6.7-12.5,14.4-24.3,24.8-34.2c19.7-10.4,41.2-16.2,62-23.3
		c76.5-26.1,153-52.5,229.5-78.6c85.5-29.1,170.8-58.6,256.2-88c28.7-9.9,57.1-20.1,86.7-26.9C1302,529.7,1325.8,529.7,1349.6,529.7
		z"/>
	<path class="st27" d="M579.7,847.5c1.7,5.9,5.8,4.6,9.9,3.2c53.3-18.1,106.6-36.2,159.9-54.5c32.7-11.2,65.2-22.7,97.9-33.9
		c106.2-36.3,212.4-72.4,318.6-108.7c83.6-28.6,167.2-57.3,250.7-86c26.8-9.2,53.6-18.4,80.4-27.7c6.6-2.3,13.4-4.1,17.8-10.3
		c16.5,0,32.9,0,49.4,0c2,6.1-2.7,8.1-6.7,9.9c-5.6,2.5-11.3,4.9-17.2,6.9c-77.2,25.5-153.9,52.5-230.9,78.8
		c-84.7,29-169.4,58-254,87.1c-86.2,29.7-172.5,59.1-258.7,88.8c-68.7,23.7-137.6,47-206.2,71c-3.9,1.4-7.8,3-11.8,3.5
		c-4.3,0.5-9.6,1.3-9.2-5.9C572.6,862.1,574.6,854.1,579.7,847.5z"/>
	<path class="st28" d="M1929.5,529.7c-2.7,5.3-7.7,7-12.8,8.8c-75.8,25.8-151.6,51.5-227.4,77.4c-115,39.3-229.9,78.8-344.9,118.3
		c-81.6,28-163.1,56-244.6,84c-12.8,4.4-25.5,9.1-38.3,13.7c-6.4,2.3-6.7,5.1-0.5,8.2c-26.4-0.8-52.6,1-78.7,5.5
		c-0.2-7.2,6.2-6.6,10.2-7.9c70.3-24.2,140.7-48.1,211.1-72.2c116.2-39.8,232.4-79.6,348.6-119.5c82.4-28.3,164.7-56.5,247.1-84.8
		c22.9-7.9,45.8-15.8,68.7-23.7c4.7-1.6,9.4-3,12.2-7.7C1896.6,529.7,1913.1,529.7,1929.5,529.7z"/>
	<path class="st29" d="M2218.2,529.6c-2.7,4.7-7.5,6.1-12.2,7.7c-58.3,20-116.5,39.9-174.8,59.9c-116.1,39.8-232.3,79.6-348.4,119.5
		c-82.3,28.2-164.7,56.5-247,84.8c-78.1,26.8-156.1,53.7-234.1,80.5c-4.7,1.6-9.4,3.1-12.3,7.6c-4.5-1.8-7.2-5.6-10.3-8.9
		c-2.4-8.6,4.7-9.6,9.7-11.3c32.3-11.5,64.9-22.4,97.3-33.6c160.3-55.3,320.7-110.2,481.1-165.2c124.4-42.7,248.7-85.7,373.3-128
		c12.7-4.3,25.5-8.5,38.2-13C2191.9,529.6,2205,529.6,2218.2,529.6z"/>
	<path class="st30" d="M1828.3,529.7c-2.8,4.6-7.5,6.1-12.2,7.7c-63,21.5-126,43.1-189,64.7c-116.3,39.8-232.5,79.7-348.8,119.6
		c-82,28.1-164.1,56.3-246.1,84.5c-114.7,39.3-229.4,78.7-344.1,118c-50.9,17.4-101.9,34.7-152.9,52.1c0.4-4.2-0.2-8.6,2.7-12.3
		c2.9-2.9,5.9-5.6,10-7c116.7-38.3,232.5-79.2,348.7-118.9c140-47.7,279.8-95.9,419.7-143.9c111.9-38.4,223.8-76.7,335.7-115.4
		c40.4-13.9,81.4-26,120.8-42.6c7.6-3.2,16.5-1.5,23.6-6.5C1807,529.7,1817.6,529.7,1828.3,529.7z"/>
	<path class="st30" d="M1796.3,529.7c-2.7,5.3-7.7,7-12.8,8.7c-59.1,20.2-118.2,40.4-177.3,60.7c-114.3,39.2-228.5,78.4-342.8,117.6
		c-82.4,28.3-164.8,56.5-247.2,84.8C902,840.7,787.7,879.9,673.4,919.1c-39.6,13.6-79.2,27.5-118.8,41.2c-5.4,1.9-10.9,3.9-16.8,3.5
		c0-6.3,1.4-12.2,4.8-17.5c4.4,9.2,11.3,4.3,16.9,2.4c70.4-24.1,140.6-48.5,210.9-72.6c96.8-33.2,193.6-66.2,290.4-99.3
		c82-28.1,164-56.3,246-84.4c114.6-39.3,229.3-78.6,343.9-118c35-12,69.8-24.4,104.7-36.5c5-1.8,10.4-3,13.4-8
		C1778.2,529.7,1787.2,529.7,1796.3,529.7z"/>
	<path class="st31" d="M555,906.9c8.4,6,15.9,0.2,23.3-2.3c96-32.9,191.8-66.1,287.8-99c100.2-34.4,200.6-68.5,300.9-102.8
		c82.4-28.2,164.7-56.5,247.1-84.8c78.1-26.8,156.1-53.7,234.2-80.6c4.7-1.6,9.5-3,12.2-7.6c9.2,0.4,18.5-2.3,27.4,1.9
		c1.6,9.4-6.6,9.5-11.7,11.1c-41.5,13.6-82.6,28.3-123.9,42.4c-120.5,41.3-241,82.9-361.5,124c-3.5,1.2-6.9,2.5-10.3,4
		c-169.5,57.5-338.7,116-508,174c-35.6,12.2-70.9,25-106.7,36.5c-6.4,2.1-12,3.8-15.3-4.2C550.8,914.8,552.4,910.7,555,906.9z"/>
	<path class="st32" d="M1278.1,529.7c-1.6,5.4-6.6,5.7-10.8,7.1c-72.7,24.8-145.4,49.5-218,74.4c-114.6,39.2-229.2,78.6-343.8,117.9
		c-15.9,5.5-31.8,11.1-47.7,16.7c-4.6,1.6-9.3,3.7-14.2,0.7c7-11,15.1-21.1,24.9-29.8c24-8.1,48.3-15.7,72.1-24.5
		c34.3-12.7,69.1-23.8,103.7-35.7c76.5-26.3,153.1-52.6,229.6-78.8c35-11.9,70.4-22.6,104.8-36.3c13.8-5.5,28.7-6.7,42.6-11.7
		C1240.3,529.7,1259.2,529.7,1278.1,529.7z"/>
	<path class="st13" d="M856.6,1146.3c5.5,7.5,11,14.9,16.5,22.4c-20,9.7-41.5,15.4-62.4,22.7c-77.1,26.9-154.6,52.9-231.8,79.2
		c-15.5,5.3-31.1,10.6-46.4,16.4c-8.9,3.3-12.1,0.5-11.7-8.6c0.3-7,0.1-14,0.1-20.9c3.2-7.1,9.5-9.7,16.2-12
		c65.6-22.2,131-44.7,196.5-67.3c32.9-11.4,66.1-21.8,98.7-34.1C840.3,1140.9,849.3,1136.4,856.6,1146.3z"/>
	<path class="st25" d="M530.4,1000.7c10.8,2.8,19.7-3.7,29.1-6.8c34.2-11.4,68.2-23.7,102.3-35.4c73.3-25.1,146.7-50.1,220.1-75
		c7.5-2.5,15-6.9,23.6-4c-16.2,8.8-26.6,23.6-38.3,37c-2.9,3.3-5.7,6.6-8.5,9.9c-26.5,13.2-55.1,20.6-82.9,30.2
		c-76.9,26.5-153.6,53.3-230.8,78.9c-3.5,1.2-7,2.8-10.7,2.7c-3.8,0-8.8,1.3-8.7-5.3C525.3,1021.8,526.7,1011.1,530.4,1000.7z"/>
	<path class="st33" d="M1606.3,529.7c-2.8,4.6-7.6,6-12.2,7.6c-59.5,20.4-118.9,40.7-178.4,61.1c-115,39.4-230.1,78.9-345.1,118.3
		c-80.1,27.5-160.1,55-240.1,82.5c-84.3,28.9-168.6,57.9-253,86.7c-4.7,1.6-9.7,5.6-15,0.9c1.7-4,3.4-8,5.2-12.1
		c15.7-0.1,29.5-7,43.6-12.3c33.5-12.4,67.6-23.2,101.4-34.8c77.3-26.5,154.6-53.1,232-79.5c85.6-29.1,171-58.7,256.5-88
		c82-28.1,164-56.1,245.9-84.5c36.1-12.5,72.6-23.6,108.3-37.5c6.5-2.5,12.4-6.3,19-8.7C1584.9,529.7,1595.6,529.7,1606.3,529.7z"/>
	<path class="st14" d="M525.5,1032.8c5.1,3.3,9.5-0.3,13.9-1.8c100.9-34.3,201.8-68.8,302.7-103.2c5.2-1.8,10.5-5.4,16.4-1.6
		c-6.5,12.6-13,25.1-19.5,37.7c-28.3,14.2-59.1,21.8-88.8,32.2c-69,24.1-138.1,47.9-207.4,71.1c-6.6,2.2-13.7,7-20.6,0
		c-0.3-3.3-1.3-6.6,0.8-9.8C523.8,1049.2,521.3,1040.7,525.5,1032.8z"/>
	<path class="st23" d="M856.6,1146.3c-4.3-2.2-8.6-1.7-13.1-0.2c-107.6,37.1-215.2,74.2-322.8,111.3c0-10.7,0-21.4,0-32.1
		c3.6-6.7,10.2-9.1,16.9-11.3c73.5-24.4,146.6-50.3,220-75.1c22.5-7.6,44.8-16,67.5-23.1c5.5-1.7,11-4,16.1,0.9
		C846.3,1126.6,851.4,1136.5,856.6,1146.3z"/>
	<path class="st34" d="M1221.3,529.7c-2.8,4.6-7.6,6-12.3,7.6c-63.4,21.7-126.7,43.3-190.1,65c-111.9,38.4-223.8,76.8-335.8,115
		c-4.4,1.5-10.2,7.8-14.6-0.7c7.5-9,15.4-17.4,24.3-25c31.2-13.8,63.9-23.1,96-34.4c52.4-18.3,105-36,157.3-54.2
		c63.6-22.1,127.7-43,191.1-66c9.7-3.5,20.4-2.6,29.8-7.4C1185.2,529.7,1203.3,529.7,1221.3,529.7z"/>
	<path class="st11" d="M841.1,1116.8c-85.4,29.2-170.7,58.4-256.1,87.5c-21.4,7.3-42.9,14.1-64.3,21.1c0-9.9,0-19.7,0-29.6
		c3.5-6.2,9.3-8.7,15.7-10.9c53.7-19.1,107.9-36.9,161.7-55.7c37.9-13.2,76.2-25.5,114-39.4c6.3-2.3,13.1-6,19.7-0.2
		C834.9,1098.6,838,1107.7,841.1,1116.8z"/>
	<path class="st35" d="M826.9,1013.6c-0.2,12.2-0.4,24.4-0.6,36.5c-10.9-0.6-20.6,3.6-30.7,7c-76.8,25.6-153,52.9-229.8,78.3
		c-9.7,3.2-19.1,7.6-29,10.4c-5.5,1.6-11.3,3.4-16.1-1.9c0-9.9,0-19.8,0-29.6c2.7-6.3,8.4-8.4,14.4-10.5
		c64.5-22.1,129-44.3,193.5-66.3c27.6-9.4,55.1-19.3,82.9-28C816.8,1007.9,824.2,1003.3,826.9,1013.6z"/>
	<path class="st29" d="M2178.7,529.6c-4.3,6.2-11.2,8.1-17.7,10.3c-74.6,25.5-149.4,50.8-224,76.4
		c-111.9,38.3-223.8,76.8-335.7,115.2c-82.4,28.3-164.8,56.5-247.1,84.8c-51.7,17.7-103.4,35.5-154.9,53.5
		c-7.1,2.5-15.4,3.6-20.1,10.9c-3.2-2.1-6.3-4.3-9.5-6.4c1.7-4.7,6.2-5.1,9.9-6.3c63.7-21.8,127.5-43.5,191.2-65.4
		c113.8-39,227.6-78.1,341.4-117.1c85.5-29.3,170.9-58.6,256.4-87.9c55.9-19.2,111.9-38.4,167.8-57.6c6.6-2.3,13.4-4.1,17.7-10.3
		C2162.3,529.6,2170.5,529.6,2178.7,529.6z"/>
	<path class="st36" d="M831.8,1089.6c-64.9,22.1-129.7,44.3-194.6,66.4c-38.8,13.3-77.7,26.5-116.5,39.7c0-9,0-18.1,0-27.1
		c4.1-5.5,9.9-8.2,16.3-10.3c72.3-24.1,144.1-49.6,216.4-73.8c19.4-6.5,38.5-14.1,58.1-19.9c7.9-2.3,14.8-2.3,17.1,7.7
		C829.7,1078.1,830.7,1083.8,831.8,1089.6z"/>
	<path class="st37" d="M1167.1,529.7c-11.1,10.9-26.5,12.6-40.1,17.4c-75.1,26.3-150.7,51.5-226,77.4
		c-63.3,21.7-126.4,43.8-189.7,65.5c-5.7,2-11.7,7.4-18.3,1.7c9.9-10.7,20.1-21.2,32.2-29.4c43.6-13.9,86.7-29.2,130-44
		c73.5-25.2,147.1-50.5,220.6-75.6c13.1-4.5,26.3-8.9,39.5-12.9C1132.5,529.7,1149.8,529.7,1167.1,529.7z"/>
	<path class="st18" d="M828.7,1072.3c-5.2-7.4-11.6-3.8-17.7-1.7c-85.8,29.4-171.5,58.9-257.3,88.1c-10.8,3.7-21.4,8.5-32.9,9.8
		c0-8.2,0-16.5,0-24.7c13.9-2,26.5-8.3,39.6-12.7c76.7-26.2,153.5-52.3,230.3-78.5c7.4-2.5,14.7-5.1,21.9-8.1
		c6.7-2.9,10.9-0.7,13.7,5.5C827,1057.5,827.8,1064.9,828.7,1072.3z"/>
	<path class="st29" d="M826.9,1013.6c-5-3.8-9.5-0.1-13.8,1.4c-88.5,30.2-176.9,60.5-265.3,90.8c-8.9,3-17.9,5.7-26.9,8.6
		c0-7.4,0-14.8,0.1-22.2c8.7-8.4,20.6-9.8,31.2-13.4c48.5-16.4,96.8-33.1,145.2-49.8c39.4-13.7,79.3-26.2,118.3-40.8
		c5.1-1.9,10.8-5.3,15.9,0.4C829.9,996.8,828.4,1005.2,826.9,1013.6z"/>
	<path class="st31" d="M550.5,919.4c6.5,4,12.7,1.1,18.9-1.1c112.7-38.7,225.5-77.3,338.2-116c86.3-29.6,172.6-59.2,258.9-88.8
		c4.3-1.5,8.6-2.6,13-3.9c2.1,2.5,2,4.9,0,7.4c-66.8,23-133.7,46-200.5,68.9c-115.1,39.5-230.1,78.9-345.2,118.4
		c-23.7,8.1-47.4,16.4-71.1,24.5c-4.9,1.7-10,4.8-15,0.2C547.7,925.6,548.4,922.3,550.5,919.4z"/>
	<path class="st38" d="M774.4,625.1c45.6-31.7,95.2-54.9,148.2-71c39.4-12,79.5-20.6,120.8-22.2c1.8-1.3,3.7-1.2,5.6-0.2
		c1.5,11.1-7.5,12.5-14.5,14.9c-32.6,11.1-65,22.4-97.6,33.5c-45.3,15.5-90.8,30.6-135.8,46.8c-5.4,1.9-10.8,4-16.5,4.7
		C779.7,632.1,774.5,632.5,774.4,625.1z"/>
	<path class="st31" d="M1179.5,717.1c0-2.5,0-4.9,0-7.4c4.9-2,9.7-4.4,14.8-6.1c106.4-36.4,212.9-72.6,319.3-109
		c52.8-18,105.6-36.3,158.3-54.4c5.8-2,11.7-3.8,16.1-8.5c9.6-4,19.5-1.7,29.3-2c-3.9,6.2-10.8,7.1-16.9,9.2
		c-77.7,26.5-155.5,52.8-233.2,79.5c-92,31.6-184,63.5-275.9,95.2C1187.4,714.9,1183.4,715.9,1179.5,717.1z"/>
	<path class="st33" d="M1574.2,529.7c-10.1,10.9-24.6,12.9-37.5,17.4c-76.5,26.6-153.2,52.4-229.9,78.6
		c-115.1,39.4-230.2,78.9-345.3,118.4C880.3,772,799,799.9,717.8,827.8c-44.7,15.4-89.3,30.9-134,46.2c-5.2,1.8-10.6,5.6-16.3,0.9
		c0.7-1.7,1.5-3.5,2.2-5.2c4.5,4.3,9.2,1.9,13.8,0.4c126.2-43.4,252.4-86.9,378.7-130.3c73.4-25.2,147-50,220.5-75.2
		c118.9-40.7,237.9-81.4,356.7-122.4c8.7-3,18.5-4.5,24.9-12.5C1567.6,529.7,1570.9,529.7,1574.2,529.7z"/>
	<path class="st39" d="M774.4,625.1c5.5,5.1,11.3,1.3,16.2-0.3c61.5-20.8,122.8-42.1,184.2-63.2c18.7-6.4,37.3-12.7,56-19.1
		c6.6-2.3,13.4-4.1,17.9-10.2c5.4-3.5,11.7,0.2,17.2-2.3c8.3-0.1,16.5-0.1,24.8-0.2c1.6,8.9-5.4,9.7-11.1,11.6
		c-39.7,13.1-79,27.3-118.6,40.7c-64.1,21.7-128.1,43.8-192.1,65.8c-5.4,1.9-10.6,4.7-16.6,4.3c-3-1.3-7.2-1.4-6.8-6.3
		C754.3,637.9,763.6,630.4,774.4,625.1z"/>
	<path class="st39" d="M752.6,648c76.3-25.8,152.6-51.6,228.8-77.5c32.3-11,64.5-22.1,96.8-33.1c4.7-1.6,9.5-3,12.3-7.6
		c8.2,0,16.5,0,24.7,0c-4.4,6.1-11.2,8-17.8,10.2c-74.5,25.4-149.1,50.8-223.6,76.3c-44.2,15.1-88.4,30.6-132.6,45.8
		c-5.2,1.8-10.7,5.5-16.1,0.3c4.6-6.3,11-10.4,17.6-14.2C746.1,648.7,749.3,650.6,752.6,648z"/>
	<path class="st19" d="M831.4,988.5c-14,2.1-26.6,8.3-39.7,12.8c-77,26.3-153.9,52.6-231,78.6c-13.1,4.4-25.4,11.9-39.8,12.2
		c0.8-11.5-2.5-23.3,2.3-34.6c0,3.3,0,6.6,0.1,9.9c4.7,5.5,9.9,7.4,17.4,4.8c49.6-17.2,99.4-33.9,149-51.2
		c40.3-14.1,80.9-27,121-41.7c7-2.6,14.9-6.5,21.3,1.9C831.7,983.6,831.6,986.1,831.4,988.5z"/>
	<path class="st39" d="M1065.8,530c-5.4,3.4-11.5,1.5-17.2,2.3c-1.7-0.1-3.5-0.2-5.2-0.4C1050.7,528.8,1058.3,529.8,1065.8,530z"/>
	<path class="st39" d="M752.6,648c-3.3,2.9-6.6,2.9-9.9,0c0.9-0.7,1.8-1.4,2.6-2.1C747.8,646.6,750.2,647.3,752.6,648z"/>
	<path class="st19" d="M831.9,981.2c-10.7-1.1-20.1,3.6-29.7,6.9c-82.7,28.3-165.3,56.6-247.9,85c-5,1.7-9.9,3.8-14.9,5.7
		c-14,5.3-15.8,4.1-16.1-11.5c71.5-24.2,143.1-48.5,214.6-72.8c29.2-9.9,58.2-20,87.4-29.9c4.4-1.5,9-5,13.8-0.8
		C836.7,969.7,836.8,976.5,831.9,981.2z"/>
</g>
</svg>
