<?xml version="1.0" encoding="utf-8"?>
<!-- Generator: Adobe Illustrator 23.0.1, SVG Export Plug-In . SVG Version: 6.00 Build 0)  -->
<svg version="1.1" id="Layer_1" xmlns="http://www.w3.org/2000/svg" xmlns:xlink="http://www.w3.org/1999/xlink" x="0px" y="0px"
	 viewBox="0 0 101 30" style="enable-background:new 0 0 101 30;" xml:space="preserve">
<style type="text/css">
	.st0{fill:#FFFFFF;}
</style>
<path class="st0" d="M-0.5-2.8h3.2L3-8.6c0.1-1,0-2.2,0-2.2l0,0c0,0,0.4,1.4,0.7,2.2L5-4.9h2.7L9-8.6c0.3-0.8,0.7-2.2,0.7-2.2l0,0
	c0,0-0.1,1.2,0,2.2l0.4,5.8h3.1l-1-12.9H9l-1.9,5.4C6.8-9.5,6.5-8.2,6.5-8.2l0,0c0,0-0.4-1.3-0.6-2.1L4-15.7H0.5L-0.5-2.8z
	 M16.7-2.8H25v-2.7h-5.2v-2.4h3.9v-2.7h-3.9v-2.3h4.9v-2.7h-8.1v12.8H16.7z M30.3-2.8h3.1V-13h3.9v-2.7h-11v2.7h3.9v10.2H30.3z
	 M39.4-2.8h3.2v-4.3h1.5l2.3,4.3h3.5l-2.5-4.5c-0.3-0.5-0.5-0.8-0.5-0.8l0,0c1.3-0.6,1.9-2.1,1.9-3.5c0-1.9-0.9-3.2-2.4-3.7
	c-0.6-0.2-1.2-0.3-2.5-0.3h-4.5V-2.8z M42.6-9.8v-3.1h1.1c1.6,0,1.9,0.6,1.9,1.5c0,1-0.6,1.6-1.6,1.6H42.6z M51.3-9.3
	c0,3.8,2.8,6.7,6.7,6.7s6.7-3,6.7-6.7s-2.8-6.6-6.7-6.6S51.3-13,51.3-9.3z M54.6-9.3c0-2.1,1.5-3.7,3.5-3.7s3.5,1.6,3.5,3.7
	c0,2.2-1.5,3.9-3.5,3.9S54.6-7.1,54.6-9.3z M67.5-2.8h3.2v-6c0-0.8-0.1-2.2-0.1-2.2l0,0c0,0,0.6,1.4,1.1,2.2l3.6,6h3.2v-12.9h-3.2v6
	c0,0.8,0.1,2.2,0.1,2.2l0,0c0,0-0.6-1.4-1.1-2.2l-3.6-6h-3.2V-2.8z M81.9-2.8H85v-12.9h-3.1V-2.8z M87.8-9.2c0,3.8,2.7,6.7,6.8,6.7
	c3.4,0,5.2-2.2,5.2-2.2L98.2-7c0,0-1.5,1.6-3.4,1.6c-2.4,0-3.6-2-3.6-3.9s1.2-3.7,3.6-3.7c1.8,0,3.2,1.3,3.2,1.3l1.5-2.4
	c0,0-1.6-1.8-4.8-1.8C90.6-15.9,87.8-13,87.8-9.2z"/>
<text transform="matrix(1 0 0 1 6.8586 42.9001)" class="st0" style="font-family:'Poppins-SemiBold'; font-size:15px;">INSIGHTCBD</text>
<g>
	<path class="st0" d="M49.5,4c0.3,0.2,0.6,0.4,0.9,0.6c0.1,0.1,0.2,0.1,0.3,0.2c0.2,0.1,0.3,0,0.4-0.2c0.2-0.5,0.4-1,0.6-1.5
		c0,0,0,0,0-0.1c-0.3,0-0.5,0-0.7,0c-2.8,0.2-5.2,1.3-7.5,2.8c-0.1,0-0.2,0.1-0.3,0.1c-0.6-0.1-1.3,0-1.9,0c-0.6,0-1.1,0.1-1.7,0.1
		c-0.1,0-0.1,0-0.2,0c0,0,0.1-0.1,0.1-0.1c2.5-1.9,5.2-3.2,8.2-4c1.3-0.3,2.5-0.6,3.8-0.6c2.1-0.1,4.1,0.2,6.1,0.9
		c2.6,0.9,5,2.2,7.2,3.9c0.8,0.6,1.6,1.3,2.4,2c0,0,0.1,0.1,0.1,0.1c0,0,0,0,0,0.1c-2,1.8-4.2,3.4-6.7,4.6c-1.6,0.8-3.3,1.4-5.1,1.8
		c-1.2,0.3-2.4,0.3-3.6,0.3c-2-0.1-4-0.5-6-1.1c-1.8-0.6-3.6-1.3-5.3-2.2c-2.2-1.1-4.3-2.3-6.3-3.7c0,0-0.1-0.1-0.1-0.1c0,0,0,0,0,0
		c1.1,0.5,2.3,0.8,3.5,1.1c1.1,0.2,2.2,0.4,3.3,0.7c0.1,0,0.1,0,0.2,0.1c1.8,1.1,3.7,1.9,5.7,2.5c0.6,0.2,1.3,0.4,1.9,0.6
		c0,0,0.1,0,0.1,0c-1.1-0.9-2.2-1.8-3.3-2.8c0.1,0,0.1,0,0.1,0c0.5-0.1,0.8-0.4,0.6-0.9c-0.2-0.6-0.3-1.2-0.5-1.8c0,0,0-0.1,0-0.2
		c0.1,0,0.1,0,0.1,0c0.4,0.1,0.7,0.3,1.1,0.4c0.1,0,0.2,0.1,0.3,0.1c0.3,0.1,0.6-0.1,0.8-0.4C48,6.9,48,6.8,48,6.7
		c0-0.1,0-0.3,0.1-0.4c0,0,0.1,0.1,0.1,0.1C48.7,7,49.2,7.5,49.6,8c0.1,0.1,0.2,0.1,0.2,0.2c0.2,0.1,0.3,0,0.3-0.2
		c0-0.2,0-0.5-0.1-0.7C49.9,6.3,49.7,5.2,49.5,4C49.5,4,49.5,4,49.5,4z M55.9,12.5C55.9,12.6,55.9,12.6,55.9,12.5c0.2,0,0.3,0,0.4,0
		c1.2-0.3,2.2-0.8,3.2-1.4c1.4-0.8,2.7-1.8,4-3c0.1-0.1,0.1-0.1,0-0.2c-0.2-0.2-0.5-0.4-0.7-0.7c-1-0.9-2.1-1.6-3.3-2.3
		c-2-1.1-4-1.8-6.2-2.1c-0.2,0-0.4,0-0.6,0c0,0,0,0,0,0c0.3,0.5,0.6,1.1,0.9,1.6c0.1,0.1,0.1,0.1,0.2,0.1c0.2-0.1,0.4-0.2,0.6-0.3
		c0.2-0.1,0.4-0.3,0.7-0.4c0,0.1,0,0.1,0,0.2c-0.2,1.1-0.5,2.3-0.7,3.4c0,0.2,0,0.3,0,0.5c0,0.1,0.1,0.2,0.2,0.2
		c0.2,0,0.3-0.1,0.5-0.3c0.2-0.3,0.5-0.6,0.7-0.9c0.2-0.3,0.4-0.5,0.7-0.8c0.1,0.3,0.2,0.5,0.4,0.8c0.1,0.2,0.3,0.3,0.5,0.3
		c0.3,0,0.6-0.1,0.8-0.1c0.3-0.1,0.6-0.2,0.9-0.3c0,0,0,0.1,0,0.1c-0.2,0.6-0.3,1.2-0.5,1.8c-0.1,0.4,0.1,0.9,0.6,0.9c0,0,0,0,0.1,0
		C58,10.7,56.9,11.6,55.9,12.5z"/>
	<path class="st0" d="M39.1,23.2c-0.4,0-0.8,0-1.3,0c0,0-0.1,0-0.1-0.1c0,0,0-0.1,0-0.1c0-1.4,0-2.8,0-4.3c0-1,0.6-1.4,1.3-1.5
		c0.6-0.1,1.2,0,1.6,0.5c0.1,0.1,0.1,0.2,0.2,0.3c0.4,1.1,0.7,2.2,1.1,3.3c0,0.1,0,0.2,0.1,0.3c0,0.1,0.1,0.2,0.3,0.2
		c0.2,0,0.2-0.1,0.2-0.3c0-0.1,0-0.3,0-0.4c0-1.3,0-2.6,0-3.9c0-0.1,0-0.2,0.2-0.2c0.3,0,0.7,0,1,0c0.1,0,0.1,0,0.1,0.1
		c0,1.6,0,3.2,0,4.8c0,0.5-0.3,0.8-0.8,1c-0.9,0.3-1.6,0.1-2.2-0.8c-0.1-0.1-0.1-0.3-0.2-0.5c-0.3-1-0.7-2-1-2.9
		c0-0.1,0-0.2-0.1-0.3c0-0.1-0.1-0.2-0.2-0.2c-0.1,0-0.2,0.1-0.2,0.2c0,0.1,0,0.2,0,0.3c0,1.4,0,2.7,0,4.1
		C39.1,23,39.1,23.1,39.1,23.2z"/>
	<path class="st0" d="M44.9,22c0.3,0,0.5,0,0.8,0c0.8,0,1.6,0,2.4,0c0.4,0,0.6-0.2,0.6-0.7c0-0.1,0-0.2-0.1-0.3
		c-0.1-0.2-0.2-0.2-0.4-0.2c-0.7,0-1.4,0-2.1,0c-0.9,0-1.4-0.5-1.5-1.4c0-0.4,0-0.8,0.1-1.2c0.2-0.7,0.6-1,1.3-1c1.1,0,2.3,0,3.4,0
		c0,0,0.1,0,0.1,0c0,0.4,0,0.9,0,1.3c-0.1,0-0.1,0-0.2,0c-1,0-2,0-3,0c-0.2,0-0.4,0.1-0.5,0.3c-0.1,0.2-0.1,0.5,0.1,0.7
		c0.1,0.1,0.2,0.1,0.3,0.1c0.7,0,1.5,0,2.2,0c0.5,0,1,0.2,1.2,0.7c0.3,0.7,0.3,1.4,0.1,2.1c-0.2,0.5-0.6,0.8-1.2,0.8
		c-1.2,0-2.3,0-3.5,0c-0.1,0-0.1,0-0.1-0.1C44.9,22.7,44.9,22.3,44.9,22z"/>
	<path class="st0" d="M57.6,18.5c-0.6,0-1.2,0-1.8,0c-0.3,0-0.6,0-0.9,0c-0.3,0-0.5,0.1-0.6,0.3c-0.2,0.3-0.3,0.6-0.4,1
		c-0.1,0.5-0.1,1,0.1,1.5c0,0.1,0.1,0.2,0.1,0.3c0.2,0.3,0.4,0.5,0.8,0.5c0.5,0,0.9,0,1.4,0c0.3,0,0.5-0.2,0.5-0.6
		c0-0.3-0.2-0.5-0.5-0.5c-0.3,0-0.6,0-0.9,0c0,0-0.1,0-0.2,0c0-0.4,0-0.9,0-1.3c0.1,0,0.1,0,0.2,0c0.4,0,0.7,0,1.1,0
		c0.7,0,1.3,0.4,1.5,1.2c0.1,0.4,0.1,0.8,0,1.2c-0.2,0.6-0.6,1-1.2,1.1c-0.3,0.1-0.6,0.1-0.9,0.1c-0.3,0-0.7,0-1,0
		c-1.2-0.2-1.9-0.8-2.1-2c-0.2-0.9-0.2-1.8,0.1-2.6c0.2-0.6,0.5-1.1,1.2-1.3c0.2-0.1,0.4-0.1,0.7-0.1c0.9,0,1.9,0,2.8,0
		c0,0,0.1,0,0.1,0C57.6,17.6,57.6,18,57.6,18.5z"/>
	<path class="st0" d="M60.1,17.2c0,0.8,0,1.6,0,2.4c0.1,0,0.1,0,0.2,0c0.7,0,1.4,0,2.1,0c0.1,0,0.2,0,0.2-0.2c0-0.7,0-1.3,0-2
		c0-0.1,0-0.1,0-0.2c0.4,0,0.8,0,1.3,0c0,2,0,4,0,6c-0.1,0-0.3,0-0.4,0c-0.2,0-0.5,0-0.7,0c-0.1,0-0.1,0-0.1-0.1c0-0.7,0-1.4,0-2.1
		c0-0.1,0-0.1,0-0.2c-0.8,0-1.6,0-2.4,0c0,0.8,0,1.6,0,2.4c0,0-0.1,0-0.1,0c-0.4,0-0.7,0-1.1,0c-0.1,0-0.1-0.1-0.1-0.1
		c0-0.7,0-1.3,0-2c0-1.2,0-2.5,0-3.7c0-0.1,0-0.2,0.2-0.2c0.3,0,0.6,0,0.9,0C60,17.1,60,17.2,60.1,17.2z"/>
	<path class="st0" d="M65.8,23.2c0-1.6,0-3.2,0-4.7c-0.5,0-0.9,0-1.4,0c0,0,0-0.1,0-0.1c0-0.4,0-0.7,0-1.1c0-0.1,0-0.1,0.1-0.1
		c1.3,0,2.5,0,3.8,0c0.1,0,0.1,0,0.1,0.1c0,0.4,0,0.7,0,1.1c0,0.1,0,0.1-0.1,0.1c-0.3,0-0.7,0-1,0c-0.2,0-0.2,0-0.2,0.2
		c0,1.4,0,2.9,0,4.3c0,0.2,0,0.2-0.2,0.2c-0.3,0-0.6,0-0.9,0C65.9,23.2,65.9,23.2,65.8,23.2z"/>
	<path class="st0" d="M50.6,17.2c0.4,0,0.9,0,1.3,0c0,2,0,4,0,6c-0.4,0-0.9,0-1.3,0C50.6,21.2,50.6,19.2,50.6,17.2z"/>
	<path class="st0" d="M35.7,23.2c0-2,0-4,0-6c0,0,0.1,0,0.1,0c0.3,0,0.7,0,1,0c0.1,0,0.1,0,0.1,0.1c0,1.9,0,3.8,0,5.8
		c0,0.1,0,0.1-0.1,0.1C36.5,23.2,36.1,23.2,35.7,23.2C35.7,23.2,35.7,23.2,35.7,23.2z"/>
</g>
</svg>
